<svg width="50" height="49" viewBox="0 0 50 49" fill="none" xmlns="http://www.w3.org/2000/svg">
<g id="Group">
<path id="Vector" d="M2.7334 47.9943V30.2383H10.2654V47.9943H2.7334Z" stroke="#0C1A81" stroke-linecap="round" stroke-linejoin="round"/>
<path id="Vector_2" d="M15.4014 47.9932V25.7852H22.9334V47.9932H15.4014Z" stroke="#0C1A81" stroke-linecap="round" stroke-linejoin="round"/>
<path id="Vector_3" d="M41.1689 47.9973V19.7773H48.7009V47.9973H41.1689Z" stroke="#0C1A81" stroke-linecap="round" stroke-linejoin="round"/>
<path id="Vector_4" d="M28.333 47.9917V37.3477H35.865V47.9917H28.333Z" stroke="#0C1A81" stroke-linecap="round" stroke-linejoin="round"/>
<path id="Vector_5" d="M30.1046 9.55453C29.8285 9.55453 29.6046 9.33067 29.6046 9.05453V2.41299C25.7274 2.70041 22.7748 6.30344 23.5753 10.4026L30.1046 9.55453ZM30.1046 9.55453H36.7462M30.1046 9.55453H36.7462M36.7462 9.55453C36.4587 13.4317 32.8557 16.3843 28.7565 15.5838L36.7462 9.55453ZM28.7565 15.5838C26.1522 15.0748 24.0843 13.007 23.5753 10.4027L28.7565 15.5838Z" stroke="#0C1A81" stroke-linecap="round" stroke-linejoin="round"/>
<path id="Vector_6" d="M38.6865 6.66H32.5449V0.518461C35.8259 0.761663 38.4433 3.37899 38.6865 6.66Z" stroke="#ED1C24" stroke-linecap="round" stroke-linejoin="round"/>
<g id="Group_2">
<path id="Vector_7" d="M6.50098 24.8817L7.52498 23.9297" stroke="#0C1A81" stroke-linecap="round" stroke-linejoin="round"/>
<path id="Vector_8" d="M9.4248 22.172L16.0648 16" stroke="#0C1A81" stroke-width="0.5" stroke-linecap="round" stroke-linejoin="round" stroke-dasharray="6 6"/>
<g id="Vector_9">
<mask id="path-9-inside-1_11139_31465" fill="white">
<path d="M17.0127 15.12L18.0407 14.168L18.9407 15.24"/>
</mask>
<path d="M16.3332 14.3863C15.928 14.7615 15.9037 15.3942 16.279 15.7994C16.6542 16.2046 17.2869 16.2289 17.6922 15.8537L16.3332 14.3863ZM18.0407 14.168L18.8066 13.525C18.6306 13.3154 18.3765 13.1871 18.1033 13.1699C17.8302 13.1528 17.562 13.2483 17.3612 13.4343L18.0407 14.168ZM18.1748 15.883C18.5299 16.3059 19.1607 16.361 19.5837 16.0058C20.0067 15.6507 20.0617 15.02 19.7066 14.597L18.1748 15.883ZM17.6922 15.8537L18.7202 14.9017L17.3612 13.4343L16.3332 14.3863L17.6922 15.8537ZM17.2748 14.811L18.1748 15.883L19.7066 14.597L18.8066 13.525L17.2748 14.811Z" fill="#0C1A81" mask="url(#path-9-inside-1_11139_31465)"/>
</g>
<path id="Vector_10" d="M20.6934 17.3203L30.3214 28.7683" stroke="#0C1A81" stroke-width="0.5" stroke-linecap="round" stroke-linejoin="round" stroke-dasharray="6 6"/>
<g id="Vector_11">
<mask id="path-12-inside-2_11139_31465" fill="white">
<path d="M31.1973 29.8089L32.1013 30.8769L32.7293 29.6289"/>
</mask>
<path d="M31.9605 29.1628C31.6037 28.7413 30.9727 28.6888 30.5512 29.0456C30.1296 29.4024 30.0772 30.0334 30.434 30.455L31.9605 29.1628ZM32.1013 30.8769L31.338 31.523C31.5548 31.7792 31.8858 31.9095 32.2191 31.8699C32.5524 31.8304 32.8437 31.6262 32.9945 31.3264L32.1013 30.8769ZM33.6225 30.0784C33.8708 29.5851 33.6721 28.9839 33.1788 28.7356C32.6854 28.4874 32.0842 28.6861 31.836 29.1794L33.6225 30.0784ZM30.434 30.455L31.338 31.523L32.8645 30.2308L31.9605 29.1628L30.434 30.455ZM32.9945 31.3264L33.6225 30.0784L31.836 29.1794L31.208 30.4274L32.9945 31.3264Z" fill="#0C1A81" mask="url(#path-12-inside-2_11139_31465)"/>
</g>
<path id="Vector_12" d="M34.0127 27.0667L43.6607 7.88672" stroke="#0C1A81" stroke-width="0.5" stroke-linecap="round" stroke-linejoin="round" stroke-dasharray="6 6"/>
<path id="Vector_13" d="M44.3047 6.61137L44.9327 5.35938" stroke="#0C1A81" stroke-linecap="round" stroke-linejoin="round"/>
</g>
<g id="Group_3">
<path id="Vector_14" d="M7.88928 24.8841C7.88928 25.6507 7.26785 26.2721 6.50128 26.2721C5.73471 26.2721 5.11328 25.6507 5.11328 24.8841C5.11328 24.1175 5.73471 23.4961 6.50128 23.4961C7.26785 23.4961 7.88928 24.1175 7.88928 24.8841Z" fill="white" stroke="#ED1C24" stroke-miterlimit="10"/>
<path id="Vector_15" d="M19.2614 14.181C19.2614 14.9475 18.6399 15.569 17.8734 15.569C17.1068 15.569 16.4854 14.9475 16.4854 14.181C16.4854 13.4144 17.1068 12.793 17.8734 12.793C18.6399 12.793 19.2614 13.4144 19.2614 14.181Z" fill="white" stroke="#0C1A81" stroke-miterlimit="10"/>
<path id="Vector_16" d="M33.4371 30.8763C33.4371 31.6428 32.8157 32.2643 32.0491 32.2643C31.2826 32.2643 30.6611 31.6428 30.6611 30.8763C30.6611 30.1097 31.2826 29.4883 32.0491 29.4883C32.8157 29.4883 33.4371 30.1097 33.4371 30.8763Z" fill="white" stroke="#0C1A81" stroke-miterlimit="10"/>
<path id="Vector_17" d="M46.3209 5.36066C46.3209 6.12723 45.6995 6.74866 44.9329 6.74866C44.1664 6.74866 43.5449 6.12723 43.5449 5.36066C43.5449 4.59409 44.1664 3.97266 44.9329 3.97266C45.6995 3.97266 46.3209 4.59409 46.3209 5.36066Z" fill="white" stroke="#0C1A81" stroke-miterlimit="10"/>
</g>
<path id="Vector_18" d="M3.95312 8.4912C4.56135 9.10837 5.40173 9.50235 6.33523 9.52314C6.35809 9.52635 6.38139 9.528 6.40501 9.528C7.36754 9.528 8.23852 9.13494 8.86518 8.49492C9.47923 7.87552 9.85301 7.01831 9.85301 6.084C9.85301 3.81061 7.6521 2.05376 5.28478 2.81574C4.25052 3.14632 3.43287 3.98369 3.12192 5.02493L3.12178 5.02538C2.89147 5.79922 2.92671 6.55484 3.16101 7.22497C3.3303 7.70933 3.60296 8.13637 3.95312 8.4912ZM6.41598 18.284C6.2684 18.0762 6.08528 17.8144 5.87624 17.5075C5.31123 16.6781 4.55849 15.5219 3.80648 14.2138C3.05373 12.9044 2.30647 11.451 1.74859 10.0262C1.18794 8.59432 0.833008 7.22717 0.833008 6.08C0.833008 2.99614 3.32915 0.5 6.41301 0.5C9.49665 0.5 11.993 2.99993 11.993 6.08C11.993 7.26154 11.6373 8.64599 11.0772 10.0826C10.5195 11.5128 9.7726 12.9615 9.02021 14.2621C8.26855 15.5615 7.51614 16.7049 6.95141 17.5237C6.74436 17.8239 6.56276 18.0801 6.41598 18.284Z" stroke="#0C1A81" stroke-linecap="round" stroke-linejoin="round"/>
</g>
</svg>
