<svg width="499" height="224" viewBox="0 0 499 224" fill="none" xmlns="http://www.w3.org/2000/svg">
<g clip-path="url(#clip0_9277_144019)">
<path d="M494.862 146.691H479.761V155.378H485.134V161.273H472.691V184.965H486.831V176.137H482.278V170.073H494.806V169.622V147.058L494.862 146.691Z" fill="#0C1A81"/>
<path d="M370.885 44.2528H309.349V37.8786H439.434V15.9919H323.489V8.68699H377.672V0H312.403V23.7764H428.349V30.1224H298.264V51.9809H370.885V44.2528Z" fill="#0C1A81"/>
<path d="M301.884 72.5138V66.337H461.38V44.2529H378.295V51.981H450.068V58.4398H290.544V80.2136H296.794H486.831V86.475H341.984V108.644H418.961V100.775H353.324V94.2877H498.143V72.5138H301.884Z" fill="#0C1A81"/>
<path d="M411.58 157.409V165.053H451.765V171.483H377.051V193.568H430.782V199.744H396.564V222.928H424.617V214.129H407.847V207.501H442.178V185.727H430.867H388.447V179.155H463.162V157.24L411.58 157.409Z" fill="#0C1A81"/>
<path d="M426.37 100.774V108.643H473.313V114.848H375.523V136.622H379.68H448.201V142.968H383.357V165.052H404.199V157.324H394.668V150.95H459.541V129.064H386.835V122.746H484.625V100.774H426.37Z" fill="#0C1A81"/>
<path d="M9.41797 121.871C9.41797 102.636 19.033 91.9182 34.1059 91.9182C38.5458 91.6049 42.9699 92.7136 46.734 95.0828C50.4981 97.4519 53.4055 100.958 55.0326 105.09L45.6722 109.997C45.0195 107.456 43.4992 105.221 41.3727 103.676C39.2462 102.132 36.6466 101.375 34.0211 101.536C25.9897 101.536 20.8146 107.346 20.8146 117.105V126.102C20.8146 135.917 25.9897 141.473 34.0211 141.473C36.7962 141.514 39.5085 140.648 41.7447 139.009C43.9808 137.369 45.6183 135.045 46.4075 132.392L55.2023 137.553C53.4704 141.686 50.5136 145.192 46.7279 147.601C42.9422 150.011 38.5086 151.209 34.0211 151.035C19.033 150.95 9.41797 141.079 9.41797 121.871Z" fill="#0C1A81"/>
<path d="M62.8096 121.449C62.8096 102.157 72.7357 91.9185 87.752 91.9185C102.768 91.9185 112.694 102.157 112.694 121.449C112.694 140.74 102.853 150.95 87.752 150.95C72.6508 150.95 62.8096 140.769 62.8096 121.449ZM101.213 125.877V117.105C101.213 107.346 95.953 101.536 87.752 101.536C79.551 101.536 74.291 107.346 74.291 117.105V125.933C74.291 135.664 79.551 141.474 87.752 141.474C95.953 141.474 101.213 135.607 101.213 125.877Z" fill="#0C1A81"/>
<path d="M125.477 92.9058H146.29C161.222 92.9058 171.006 102.467 171.006 121.449C171.006 140.43 161.222 150.02 146.29 150.02H125.477V92.9058ZM146.29 140.43C154.35 140.43 159.497 135.692 159.497 125.961V117.105C159.497 107.375 154.35 102.608 146.29 102.608H136.166V140.571L146.29 140.43Z" fill="#0C1A81"/>
<path d="M183.789 150.02V92.9058H221.514V102.467H194.592V116.315H218.403V125.877H194.592V140.43H221.514V150.02H183.789Z" fill="#0C1A81"/>
<path d="M40.1579 223.013L36.0575 209.418H16.9406L12.8401 223.013H0.199219L19.0898 165.899H34.502L53.1099 223.013H40.1579ZM26.6122 177.209H26.2162L19.91 198.898H33.0315L26.6122 177.209Z" fill="#0C1A81"/>
<path d="M69.2578 223.013V165.899H107.237V176.955H81.7856V188.66H103.532V199.603H81.7856V223.013H69.2578Z" fill="#0C1A81"/>
<path d="M137.919 223.013H125.448V165.899H152.596C163.173 165.899 169.903 173.26 169.903 184.147C169.903 191.847 166.453 197.967 159.497 200.59L170.808 223.154H156.951L146.941 202.198H138.004L137.919 223.013ZM151.041 191.593C151.823 191.69 152.616 191.614 153.364 191.37C154.113 191.126 154.798 190.72 155.371 190.181C155.944 189.642 156.39 188.984 156.678 188.253C156.966 187.521 157.088 186.736 157.036 185.952V182.342C157.088 181.558 156.966 180.773 156.678 180.042C156.39 179.311 155.944 178.652 155.371 178.113C154.798 177.574 154.113 177.168 153.364 176.924C152.616 176.68 151.823 176.604 151.041 176.701H137.919V191.593H151.041Z" fill="#0C1A81"/>
<path d="M186.702 223.013V213H194.083V175.799H186.702V165.899H213.935V175.799H206.554V213H213.935V222.9L186.702 223.013Z" fill="#0C1A81"/>
<path d="M230.337 194.865C230.337 175.573 240.263 164.912 255.788 164.912C266.28 164.912 273.011 169.171 277.196 178.337L266.45 183.978C265.931 181.596 264.566 179.481 262.607 178.025C260.647 176.568 258.225 175.868 255.788 176.052C248.492 176.052 243.657 180.96 243.657 189.957V199.124C243.657 208.121 248.492 213.028 255.788 213.028C258.34 213.036 260.824 212.214 262.865 210.688C264.906 209.161 266.393 207.012 267.1 204.567L277.281 210.462C275.513 214.665 272.498 218.229 268.641 220.674C264.785 223.119 260.27 224.329 255.704 224.141C240.263 224 230.337 214.185 230.337 194.865Z" fill="#0C1A81"/>
<path d="M328.749 223.013L324.648 209.418H305.532L301.431 223.013H288.875L307.766 165.899H323.178L341.786 223.013H328.749ZM315.203 177.209H314.807L308.501 198.898H321.623L315.203 177.209Z" fill="#0C1A81"/>
<path d="M240.8 149.202V120.518H257.23V122.746H243.26V133.604H256.297V135.776H243.26V149.258L240.8 149.202Z" fill="#0C1A81"/>
<path d="M265.602 134.846C265.602 125.143 270.041 120.01 277.394 120.01C284.747 120.01 289.13 125.143 289.13 134.846C289.13 144.548 284.69 149.681 277.394 149.681C270.098 149.681 265.602 144.548 265.602 134.846ZM286.5 136.651V133.041C286.5 126.215 282.88 122.238 277.394 122.238C271.908 122.238 268.232 126.215 268.232 133.041V136.651C268.232 143.476 271.88 147.481 277.394 147.481C282.908 147.481 286.5 143.476 286.5 136.651Z" fill="#0C1A81"/>
<path d="M302.421 149.202H299.933V120.518H311.244C313.189 120.608 315.034 121.401 316.437 122.747C317.84 124.093 318.705 125.901 318.871 127.836C319.037 129.771 318.493 131.699 317.34 133.264C316.187 134.828 314.503 135.921 312.602 136.34L319.672 149.202H316.844L309.944 136.481H302.336L302.421 149.202ZM311.244 134.394C311.91 134.456 312.582 134.374 313.213 134.153C313.844 133.933 314.419 133.578 314.9 133.115C315.381 132.651 315.755 132.09 315.998 131.468C316.241 130.847 316.346 130.181 316.307 129.515V127.54C316.342 126.877 316.234 126.214 315.989 125.596C315.744 124.978 315.369 124.42 314.889 123.96C314.408 123.499 313.834 123.148 313.205 122.928C312.577 122.709 311.908 122.628 311.244 122.689H302.421V134.394H311.244Z" fill="#0C1A81"/>
</g>
<defs>
<clipPath id="clip0_9277_144019">
<rect width="498" height="224" fill="white" transform="translate(0.199219)"/>
</clipPath>
</defs>
</svg>
