<svg width="251" height="113" viewBox="0 0 251 113" fill="none" xmlns="http://www.w3.org/2000/svg">
<g id="CfA logo BW" clip-path="url(#clip0_10049_312543)">
<path id="Path 185" d="M249.319 74.0007H241.708V78.383H244.416V81.3567H238.145V93.3083H245.271V88.8549H242.976V85.7959H249.291V85.5682V74.1857L249.319 74.0007Z" fill="white"/>
<path id="Path 186" d="M186.831 22.324H155.816V19.1084H221.381V8.06737H162.942V4.38227H190.252V0H157.355V11.9943H215.794V15.1957H150.229V26.2225H186.831V22.324Z" fill="white"/>
<path id="Path 187" d="M152.053 36.5806V33.4646H232.442V22.324H190.566V26.2225H226.741V29.4807H146.338V40.4649H149.488H245.27V43.6235H172.265V54.8069H211.062V50.8372H177.98V47.5647H250.971V36.5806H152.053Z" fill="white"/>
<path id="Path 188" d="M207.343 79.4074V83.2632H227.597V86.5072H189.939V97.6479H217.021V100.764H199.774V112.459H213.913V108.02H205.461V104.677H222.765V93.6925H217.063H195.684V90.3773H233.341V79.322L207.343 79.4074Z" fill="white"/>
<path id="Path 189" d="M214.797 50.8372V54.8068H238.458V57.937H189.17V68.9211H191.265H225.801V72.1225H193.118V83.2631H203.623V79.3646H198.819V76.149H231.516V65.108H194.871V61.9209H244.159V50.8372H214.797Z" fill="white"/>
<path id="Vector" d="M4.64648 61.4798C4.64648 51.7762 9.49261 46.3695 17.0896 46.3695C19.3274 46.2114 21.5572 46.7707 23.4544 47.9659C25.3515 49.161 26.8169 50.9296 27.637 53.014L22.9192 55.4897C22.5902 54.2077 21.8239 53.0801 20.7522 52.3011C19.6804 51.522 18.3702 51.1402 17.0468 51.2213C12.9989 51.2213 10.3905 54.1523 10.3905 59.0752V63.614C10.3905 68.5654 12.9989 71.3683 17.0468 71.3683C18.4456 71.3888 19.8126 70.9521 20.9397 70.125C22.0667 69.2979 22.892 68.1256 23.2898 66.7869L27.7225 69.3906C26.8496 71.4754 25.3593 73.244 23.4513 74.4595C21.5432 75.6751 19.3086 76.2794 17.0468 76.1917C9.49261 76.149 4.64648 71.1692 4.64648 61.4798Z" fill="white"/>
<path id="Vector_2" d="M31.5566 61.2665C31.5566 51.5344 36.5595 46.3696 44.128 46.3696C51.6965 46.3696 56.6994 51.5344 56.6994 61.2665C56.6994 70.9986 51.7393 76.1492 44.128 76.1492C36.5168 76.1492 31.5566 71.0128 31.5566 61.2665ZM50.9126 63.5003V59.0754C50.9126 54.1524 48.2615 51.2214 44.128 51.2214C39.9946 51.2214 37.3435 54.1524 37.3435 59.0754V63.5288C37.3435 68.4375 39.9946 71.3685 44.128 71.3685C48.2615 71.3685 50.9126 68.409 50.9126 63.5003Z" fill="white"/>
<path id="Vector_3" d="M63.1426 46.8674H73.633C81.1587 46.8674 86.0903 51.6908 86.0903 61.2663C86.0903 70.8419 81.1587 75.6794 73.633 75.6794H63.1426V46.8674ZM73.633 70.8419C77.6951 70.8419 80.2893 68.4515 80.2893 63.5428V59.0752C80.2893 54.1665 77.6951 51.7619 73.633 51.7619H68.5303V70.913L73.633 70.8419Z" fill="white"/>
<path id="Vector_4" d="M92.5332 75.6794V46.8674H111.547V51.6908H97.9779V58.6768H109.979V63.5001H97.9779V70.8419H111.547V75.6794H92.5332Z" fill="white"/>
<path id="Vector_5" d="M20.1398 112.502L18.0731 105.644H8.43791L6.37121 112.502H0L9.52117 83.6899H17.2892L26.6678 112.502H20.1398ZM13.3125 89.3954H13.113L9.93453 100.337H16.548L13.3125 89.3954Z" fill="white"/>
<path id="Vector_6" d="M34.8066 112.502V83.6899H53.9488V89.2674H41.1208V95.1721H52.0816V100.693H41.1208V112.502H34.8066Z" fill="white"/>
<path id="Vector_7" d="M69.4126 112.502H63.127V83.6899H76.8101C82.1408 83.6899 85.5331 87.4035 85.5331 92.8955C85.5331 96.7798 83.7942 99.8673 80.2879 101.191L85.9892 112.573H79.0051L73.9594 102.002H69.4554L69.4126 112.502ZM76.0262 96.6518C76.42 96.7009 76.8199 96.6625 77.1971 96.5393C77.5744 96.4162 77.9197 96.2113 78.2085 95.9394C78.4972 95.6675 78.7221 95.3353 78.8672 94.9665C79.0123 94.5977 79.074 94.2015 79.0479 93.8062V91.9849C79.074 91.5896 79.0123 91.1934 78.8672 90.8246C78.7221 90.4558 78.4972 90.1236 78.2085 89.8517C77.9197 89.5798 77.5744 89.3749 77.1971 89.2518C76.8199 89.1286 76.42 89.0902 76.0262 89.1393H69.4126V96.6518H76.0262Z" fill="white"/>
<path id="Vector_8" d="M94 112.502V107.451H97.7201V88.684H94V83.6899H107.726V88.684H104.006V107.451H107.726V112.445L94 112.502Z" fill="white"/>
<path id="Vector_9" d="M115.992 98.3022C115.992 88.5701 120.995 83.1919 128.82 83.1919C134.108 83.1919 137.5 85.3403 139.61 89.9645L134.194 92.8101C133.932 91.6085 133.244 90.5418 132.257 89.807C131.269 89.0722 130.048 88.7188 128.82 88.812C125.143 88.812 122.706 91.2877 122.706 95.8265V100.451C122.706 104.989 125.143 107.465 128.82 107.465C130.106 107.469 131.358 107.054 132.387 106.284C133.416 105.514 134.165 104.43 134.521 103.197L139.653 106.17C138.762 108.291 137.242 110.088 135.298 111.322C133.354 112.555 131.079 113.166 128.777 113.071C120.995 113 115.992 108.048 115.992 98.3022Z" fill="white"/>
<path id="Vector_10" d="M165.595 112.502L163.528 105.644H153.893L151.826 112.502H145.498L155.019 83.6899H162.787L172.166 112.502H165.595ZM158.768 89.3954H158.568L155.39 100.337H162.003L158.768 89.3954Z" fill="white"/>
<path id="Vector_11" d="M121.268 75.2669V60.7969H129.549V61.9209H122.508V67.3987H129.078V68.4943H122.508V75.2954L121.268 75.2669Z" fill="white"/>
<path id="Vector_12" d="M133.768 68.0248C133.768 63.1303 136.005 60.5408 139.711 60.5408C143.417 60.5408 145.626 63.1303 145.626 68.0248C145.626 72.9193 143.389 75.5088 139.711 75.5088C136.034 75.5088 133.768 72.9193 133.768 68.0248ZM144.301 68.9354V67.1142C144.301 63.671 142.476 61.6648 139.711 61.6648C136.946 61.6648 135.093 63.671 135.093 67.1142V68.9354C135.093 72.3786 136.932 74.399 139.711 74.399C142.491 74.399 144.301 72.3786 144.301 68.9354Z" fill="white"/>
<path id="Vector_13" d="M152.325 75.2669H151.07V60.7969H156.772C157.752 60.8427 158.682 61.2423 159.389 61.9214C160.096 62.6005 160.532 63.5129 160.616 64.4888C160.699 65.4647 160.425 66.4377 159.844 67.2269C159.263 68.016 158.414 68.5675 157.456 68.7789L161.019 75.2669H159.594L156.116 68.85H152.282L152.325 75.2669ZM156.772 67.7971C157.107 67.8285 157.446 67.7871 157.764 67.6757C158.082 67.5643 158.372 67.3855 158.614 67.1517C158.856 66.9179 159.045 66.6346 159.168 66.3211C159.29 66.0077 159.343 65.6715 159.323 65.3357V64.3397C159.341 64.005 159.286 63.6704 159.163 63.3587C159.04 63.047 158.85 62.7654 158.608 62.5332C158.366 62.301 158.077 62.1236 157.76 62.013C157.443 61.9024 157.106 61.8613 156.772 61.8924H152.325V67.7971H156.772Z" fill="white"/>
</g>
<defs>
<clipPath id="clip0_10049_312543">
<rect width="251" height="113" fill="white"/>
</clipPath>
</defs>
</svg>
