<svg width="280" height="151" viewBox="0 0 280 151" fill="none" xmlns="http://www.w3.org/2000/svg">
<g opacity="0.2" clip-path="url(#clip0_7677_24337)">
<path d="M251.412 45.3844L262.755 67.9944C263.041 68.654 263.765 69.0781 264.622 69.0781C265.479 69.0781 266.241 68.6305 266.508 67.9551L278.279 45.6357L283.765 71.1514H281.67L276.308 58.6881C276.022 58.0362 275.298 57.6122 274.46 57.6122C273.612 57.6122 272.879 58.0362 272.603 58.7038L267.374 71.1593H261.089L255.955 58.9237C255.679 58.264 254.955 57.8321 254.108 57.8321C253.212 57.8321 252.46 58.3111 252.212 59.0179L248.117 71.1514H245.479L251.412 45.3766V45.3844ZM251.289 43.7195C250.946 43.7195 250.612 43.8844 250.508 44.2142L244.289 71.2535C244.155 71.6776 244.536 72.0938 245.07 72.0938H248.384C248.746 72.0938 249.07 71.8975 249.165 71.6069L253.336 59.2614C253.441 58.9394 253.784 58.7745 254.117 58.7745C254.431 58.7745 254.755 58.9237 254.879 59.2221L260.089 71.6462C260.203 71.9132 260.508 72.0938 260.851 72.0938H267.622C267.965 72.0938 268.279 71.9132 268.384 71.6462L273.689 59.0022C273.812 58.7038 274.136 58.5546 274.451 58.5546C274.765 58.5546 275.089 58.7038 275.212 59.0022L280.651 71.654C280.765 71.9211 281.07 72.1017 281.412 72.1017H284.155C284.698 72.1017 285.089 71.6619 284.927 71.2378L279.174 44.4498C279.06 44.1357 278.727 43.9786 278.403 43.9786C278.079 43.9786 277.736 44.1436 277.622 44.4656L265.412 67.6174C265.298 67.9472 264.955 68.12 264.612 68.12C264.27 68.12 263.955 67.9629 263.822 67.6488L252.051 44.1828C251.927 43.8766 251.603 43.7273 251.279 43.7273L251.289 43.7195Z" fill="#0C1A81"/>
<path d="M213.079 47.756L213.898 51.2273C215.289 57.1095 214.993 63.6356 213.089 69.1801C211.098 63.4707 210.822 56.7639 212.336 50.7168L213.079 47.7482V47.756ZM213.098 43.8293C212.974 43.8293 212.851 43.9314 212.803 44.1356L211.203 50.5283C209.622 56.8424 209.955 63.8555 212.098 69.7927L212.822 71.7796C212.879 71.9445 212.993 72.0231 213.098 72.0231C213.203 72.0231 213.317 71.9367 213.374 71.7718L214.127 69.6121C216.136 63.8712 216.46 57.1487 215.012 51.0466L213.384 44.1513C213.336 43.9393 213.212 43.8372 213.089 43.8372L213.098 43.8293Z" fill="#0C1A81"/>
<path d="M223.146 47.756L223.965 51.2273C225.355 57.1095 225.06 63.6356 223.155 69.1801C221.165 63.4707 220.889 56.7639 222.403 50.7168L223.146 47.7482V47.756ZM223.165 43.8293C223.041 43.8293 222.917 43.9314 222.87 44.1356L221.27 50.5283C219.689 56.8424 220.022 63.8555 222.165 69.7927L222.889 71.7796C222.946 71.9445 223.06 72.0231 223.165 72.0231C223.27 72.0231 223.384 71.9367 223.441 71.7718L224.193 69.6121C226.203 63.8712 226.527 57.1487 225.079 51.0466L223.451 44.1513C223.403 43.9393 223.279 43.8372 223.155 43.8372L223.165 43.8293Z" fill="#0C1A81"/>
<path d="M233.222 47.756L234.041 51.2273C235.431 57.1095 235.136 63.6356 233.231 69.1801C231.241 63.4707 230.965 56.7639 232.479 50.7168L233.222 47.7482V47.756ZM233.241 43.8293C233.117 43.8293 232.993 43.9314 232.946 44.1356L231.346 50.5283C229.765 56.8424 230.098 63.8555 232.241 69.7927L232.965 71.7796C233.022 71.9445 233.136 72.0231 233.241 72.0231C233.346 72.0231 233.46 71.9367 233.517 71.7718L234.27 69.6121C236.279 63.8712 236.603 57.1487 235.155 51.0466L233.527 44.1513C233.479 43.9393 233.355 43.8372 233.231 43.8372L233.241 43.8293Z" fill="#0C1A81"/>
<path d="M200.755 44.8739L200.851 54.4865L190.032 44.921L200.755 44.8739ZM201.546 43.908C201.546 43.908 201.479 43.908 201.441 43.9237L188.079 43.9865C187.86 44.0415 187.755 44.2535 187.879 44.4184L201.365 56.3399C201.441 56.4341 201.546 56.4813 201.66 56.4813C201.841 56.4813 202.022 56.3713 202.022 56.1907L201.898 44.2142C201.898 44.0493 201.736 43.9237 201.546 43.9237V43.908Z" fill="#0C1A81"/>
<path d="M146.603 44.9367L134.536 54.2194L134.479 45.0231L146.603 44.9367ZM148.632 43.9707L133.67 44.0728C133.422 44.0728 133.251 44.2692 133.327 44.4577L133.403 55.8058C133.451 55.9393 133.603 56.0179 133.755 56.0179C133.822 56.0179 133.889 56.0022 133.946 55.9707L148.831 44.5205C149.146 44.3634 149.003 43.9629 148.641 43.9629L148.632 43.9707Z" fill="#0C1A81"/>
<path d="M270.736 44.929C270.736 44.929 270.774 44.929 270.793 44.9526C270.812 44.9683 270.812 44.984 270.812 44.9918L265.232 57.9814V58.0049L265.212 58.0285C265.212 58.0285 265.193 58.0678 265.146 58.0678C265.098 58.0678 265.089 58.0521 265.079 58.0206V57.9892L265.051 57.9578L259.47 44.9918C259.47 44.9918 259.47 44.9683 259.489 44.9604C259.508 44.9369 259.536 44.9369 259.546 44.9369H270.746L270.736 44.929ZM270.746 43.9788H259.536C258.727 43.9788 258.146 44.6149 258.355 45.2589L263.965 58.2798C264.127 58.7746 264.641 59.0259 265.146 59.0259C265.651 59.0259 266.146 58.7824 266.317 58.3034L271.917 45.2746C272.146 44.6306 271.555 43.9866 270.746 43.9866V43.9788Z" fill="#0C1A81"/>
<path d="M169.098 45.5494C175.908 45.5494 181.793 47.3792 186.593 50.9761C191.46 54.6279 195.336 60.1803 198.117 67.4761C198.336 68.0651 198.679 68.9525 198.898 69.785C199.108 70.5703 199.136 71.0023 199.117 71.2222H194.098C194.031 70.9002 193.946 70.4054 193.851 69.6436C193.784 69.1017 193.727 68.6305 193.631 68.2771C192.765 65.1358 190.955 60.5572 187.27 56.607C182.612 51.6201 176.336 49.0913 168.622 49.0913C161.736 49.0913 155.66 51.1567 150.546 55.2248C145.87 58.9473 142.812 63.6829 140.917 66.9263C139.974 68.5363 139.755 70.0363 139.593 71.1279V71.2143H134.879C134.784 70.4054 135.67 68.0965 136.012 67.1855V67.1698C136.146 66.8321 136.27 66.5023 136.393 66.1803C139.555 57.6122 151.784 45.5494 169.098 45.5494ZM169.098 44.5991C151.203 44.5991 138.555 57.0546 135.298 65.9054C135.174 66.2352 135.051 66.5729 134.917 66.9106C134.231 68.7012 133.298 71.1593 133.965 71.9054C134.022 71.9682 134.203 72.1724 134.927 72.1724H140.565C140.631 71.9525 140.689 71.5677 140.736 71.2457C140.889 70.2169 141.098 68.8033 141.955 67.3426C146.289 59.9211 153.774 50.0494 168.622 50.0494C185.593 50.0494 190.984 62.9447 192.517 68.497C192.603 68.7876 192.651 69.2352 192.717 69.7457C192.793 70.3583 192.965 71.7169 193.222 72.1803H199.222C199.841 72.1803 199.993 72.0075 200.051 71.9447C200.727 71.1829 199.708 68.497 199.212 67.2012C193.508 52.2091 183.374 44.607 169.108 44.607L169.098 44.5991Z" fill="#0C1A81"/>
<path d="M169.651 55.9551C173.832 55.9551 177.451 57.0781 180.403 59.3006C183.422 61.5702 185.832 65.0415 187.574 69.6043C187.86 70.3582 188.022 70.8687 188.108 71.1985L183.517 71.0886C183.489 70.8922 183.46 70.7038 183.451 70.586C183.403 70.2011 183.365 69.9027 183.298 69.6435L183.165 69.1645C182.565 66.9498 181.879 64.4367 179.946 62.4812C177.717 60.2116 174.241 59.1121 169.346 59.1121C158.946 59.1121 156.155 63.8949 153.46 68.5127L153.289 68.7954C152.765 69.6907 152.565 70.5388 152.451 71.2064H148.508C148.612 70.7901 148.822 70.1933 149.117 69.4001L149.136 69.3608C149.212 69.1566 149.298 68.9524 149.365 68.7483C151.327 63.4315 158.917 55.9394 169.651 55.9394V55.9551ZM169.651 54.9891C158.327 54.9891 150.327 62.8739 148.26 68.4734C148.184 68.6854 148.098 68.9053 148.012 69.1174C147.67 70.0284 147.022 71.7168 147.355 72.0938C147.384 72.1252 147.508 72.1566 147.717 72.1566H153.46C153.479 72.0467 153.498 71.9132 153.517 71.7954C153.622 71.12 153.755 70.1854 154.327 69.2038L154.498 68.9132C157.155 64.3582 159.67 60.0467 169.346 60.0467C179.498 60.0467 180.851 64.9943 182.041 69.353L182.174 69.832C182.232 70.0362 182.27 70.3111 182.308 70.6645C182.355 71.01 182.432 71.6619 182.546 71.9996L188.993 72.1488C189.155 72.1488 189.241 72.1252 189.26 72.1017C189.603 71.7168 188.908 69.8949 188.679 69.2901C185.06 59.7875 178.66 54.9734 169.66 54.9734L169.651 54.9891Z" fill="#0C1A81"/>
<path d="M244.443 44.2941L242.268 52.1738L243.837 52.4683L246.012 44.5886L244.443 44.2941Z" fill="#0C1A81"/>
<path d="M245.727 9.58857L233.66 18.8713L233.603 9.67496L245.727 9.58857ZM247.755 8.6226L232.793 8.72469C232.546 8.72469 232.374 8.92103 232.451 9.10951L232.527 20.4577C232.574 20.5912 232.727 20.6697 232.879 20.6697C232.946 20.6697 233.012 20.654 233.07 20.6226L247.955 9.17234C248.27 9.01527 248.127 8.61475 247.765 8.61475L247.755 8.6226Z" fill="#0C1A81"/>
<path d="M268.222 10.2091C275.031 10.2091 280.917 12.0389 285.717 15.6358C290.584 19.2876 294.46 24.8399 297.241 32.1358C297.46 32.7248 297.803 33.6122 298.022 34.4447C298.231 35.23 298.26 35.6619 298.241 35.8818H293.222C293.155 35.5598 293.07 35.0651 292.974 34.3033C292.908 33.7614 292.85 33.2902 292.755 32.9368C291.889 29.7954 290.079 25.2169 286.393 21.2666C281.736 16.2797 275.46 13.7509 267.746 13.7509C260.86 13.7509 254.784 15.8164 249.67 19.8844C244.993 23.607 241.936 28.3426 240.041 31.586C239.098 33.196 238.879 34.696 238.717 35.7876V35.874H234.003C233.908 35.0651 234.793 32.7562 235.136 31.8452V31.8295C235.27 31.4918 235.393 31.1619 235.517 30.8399C238.679 22.2719 250.908 10.2091 268.222 10.2091ZM268.222 9.25879C250.327 9.25879 237.679 21.7143 234.422 30.5651C234.298 30.8949 234.174 31.2326 234.041 31.5703C233.355 33.3609 232.422 35.819 233.089 36.5651C233.146 36.6279 233.327 36.8321 234.05 36.8321H239.689C239.755 36.6122 239.812 36.2274 239.86 35.9054C240.012 34.8766 240.222 33.463 241.079 32.0022C245.412 24.5808 252.898 14.7091 267.746 14.7091C284.717 14.7091 290.108 27.6043 291.641 33.1567C291.727 33.4473 291.774 33.8949 291.841 34.4054C291.917 35.018 292.089 36.3766 292.346 36.8399H298.346C298.965 36.8399 299.117 36.6672 299.174 36.6043C299.85 35.8426 298.831 33.1567 298.336 31.8609C292.631 16.8687 282.498 9.26664 268.231 9.26664L268.222 9.25879Z" fill="#0C1A81"/>
<path d="M268.774 20.6069C272.955 20.6069 276.574 21.73 279.527 23.9525C282.546 26.2221 284.955 29.6933 286.698 34.2561C286.984 35.0101 287.146 35.5205 287.231 35.8504L282.641 35.7404C282.612 35.5441 282.584 35.3556 282.574 35.2378C282.527 34.853 282.489 34.5546 282.422 34.2954L282.289 33.8163C281.689 31.6017 281.003 29.0886 279.07 27.1331C276.841 24.8635 273.365 23.764 268.47 23.764C258.07 23.764 255.279 28.5467 252.584 33.1645L252.412 33.4472C251.889 34.3425 251.689 35.1907 251.574 35.8582H247.631C247.736 35.442 247.946 34.8451 248.241 34.0519L248.26 34.0127C248.336 33.8085 248.422 33.6043 248.489 33.4001C250.451 28.0834 258.041 20.5912 268.774 20.5912V20.6069ZM268.774 19.641C257.451 19.641 249.451 27.5258 247.384 33.1252C247.308 33.3373 247.222 33.5572 247.136 33.7692C246.793 34.6802 246.146 36.3687 246.479 36.7457C246.508 36.7771 246.631 36.8085 246.841 36.8085H252.584C252.603 36.6985 252.622 36.565 252.641 36.4472C252.746 35.7718 252.879 34.8373 253.451 33.8556L253.622 33.565C256.279 29.0101 258.793 24.6985 268.47 24.6985C278.622 24.6985 279.974 29.6462 281.165 34.0048L281.298 34.4839C281.355 34.6881 281.393 34.9629 281.431 35.3163C281.479 35.6619 281.555 36.3137 281.67 36.6514L288.117 36.8006C288.279 36.8006 288.365 36.7771 288.384 36.7535C288.727 36.3687 288.031 34.5467 287.803 33.942C284.184 24.4394 277.784 19.6252 268.784 19.6252L268.774 19.641Z" fill="#0C1A81"/>
<path d="M268.041 30.6514C271.308 30.6514 273.622 32.3635 275.079 35.8739H259.755C260.584 33.6907 263.679 30.6514 268.041 30.6514ZM268.041 29.7012C263.07 29.7012 259.546 33.1724 258.641 35.6383L258.527 35.9368C258.431 36.1881 258.289 36.565 258.231 36.8242H276.612C276.555 36.5572 276.412 36.1724 276.355 36.0232C274.755 31.8294 271.965 29.7012 268.05 29.7012H268.041Z" fill="#0C1A81"/>
<path d="M152.289 10.0441L163.632 32.654C163.917 33.3137 164.641 33.7378 165.498 33.7378C166.355 33.7378 167.117 33.2901 167.384 32.6148L179.155 10.2954L184.641 35.8111H182.546L177.184 23.3477C176.898 22.6959 176.174 22.2718 175.336 22.2718C174.489 22.2718 173.755 22.6959 173.479 23.3634L168.251 35.8189H161.965L156.832 23.5833C156.555 22.9237 155.832 22.4917 154.984 22.4917C154.089 22.4917 153.336 22.9708 153.089 23.6776L148.993 35.8111H146.355L152.289 10.0362V10.0441ZM152.165 8.37915C151.822 8.37915 151.489 8.54407 151.384 8.87391L145.165 35.9132C145.032 36.3373 145.412 36.7535 145.946 36.7535H149.26C149.622 36.7535 149.946 36.5572 150.041 36.2666L154.212 23.921C154.317 23.599 154.66 23.4341 154.993 23.4341C155.308 23.4341 155.632 23.5833 155.755 23.8818L160.965 36.3059C161.079 36.5729 161.384 36.7535 161.727 36.7535H168.498C168.841 36.7535 169.155 36.5729 169.26 36.3059L174.565 23.6619C174.689 23.3634 175.012 23.2142 175.327 23.2142C175.641 23.2142 175.965 23.3634 176.089 23.6619L181.527 36.3137C181.641 36.5807 181.946 36.7614 182.289 36.7614H185.031C185.574 36.7614 185.965 36.3216 185.803 35.8975L180.051 9.10952C179.936 8.79538 179.603 8.63831 179.279 8.63831C178.955 8.63831 178.612 8.80323 178.498 9.12522L166.289 32.2771C166.174 32.6069 165.832 32.7797 165.489 32.7797C165.146 32.7797 164.832 32.6226 164.698 32.3085L152.927 8.8425C152.803 8.53622 152.479 8.387 152.155 8.387L152.165 8.37915Z" fill="#0C1A81"/>
<path d="M134.098 12.4157L134.917 15.8869C136.308 21.7691 136.012 28.2953 134.108 33.8398C132.117 28.1304 131.841 21.4236 133.355 15.3764L134.098 12.4079V12.4157ZM134.117 8.48901C133.993 8.48901 133.87 8.59111 133.822 8.7953L132.222 15.188C130.641 21.5021 130.974 28.5152 133.117 34.4524L133.841 36.4393C133.898 36.6042 134.012 36.6827 134.117 36.6827C134.222 36.6827 134.336 36.5963 134.393 36.4314L135.146 34.2717C137.155 28.5309 137.479 21.8084 136.032 15.7063L134.403 8.811C134.355 8.59896 134.232 8.49687 134.108 8.49687L134.117 8.48901Z" fill="#0C1A81"/>
<path d="M208.584 9.58865C211.908 9.58865 215.165 9.8164 218.27 10.264L220.822 10.6332L217.66 11.0651C214.689 11.4735 211.584 11.6777 208.441 11.6777C204.355 11.6777 200.279 11.3243 196.584 10.6489C200.317 9.95776 204.441 9.5965 208.584 9.5965V9.58865ZM208.584 8.64624C203.936 8.64624 199.298 9.08603 195.117 9.96561L192.708 10.4682C192.308 10.5546 192.308 10.7745 192.708 10.8609L195.327 11.3871C199.412 12.2117 203.917 12.6279 208.432 12.6279C211.603 12.6279 214.784 12.4237 217.841 12.0075L226.203 10.8688C226.708 10.7981 226.708 10.5232 226.212 10.4525L218.46 9.33734C215.26 8.87399 211.908 8.64624 208.574 8.64624H208.584Z" fill="#0C1A81"/>
<path d="M208.584 17.2141C211.908 17.2141 215.165 17.4419 218.27 17.8895L220.822 18.2586L217.66 18.6906C214.689 19.099 211.584 19.3031 208.441 19.3031C204.355 19.3031 200.279 18.9497 196.584 18.2743C200.317 17.5832 204.441 17.222 208.584 17.222V17.2141ZM208.584 16.2717C203.936 16.2717 199.298 16.7115 195.117 17.5911L192.708 18.0937C192.308 18.1801 192.308 18.4 192.708 18.4864L195.327 19.0126C199.412 19.8372 203.917 20.2534 208.432 20.2534C211.603 20.2534 214.784 20.0492 217.841 19.633L226.203 18.4942C226.708 18.4236 226.708 18.1487 226.212 18.078L218.46 16.9628C215.26 16.4995 211.908 16.2717 208.574 16.2717H208.584Z" fill="#0C1A81"/>
<path d="M208.584 24.8399C211.908 24.8399 215.165 25.0676 218.27 25.5153L220.822 25.8844L217.66 26.3163C214.689 26.7247 211.584 26.9289 208.441 26.9289C204.355 26.9289 200.279 26.5755 196.584 25.9001C200.317 25.209 204.441 24.8477 208.584 24.8477V24.8399ZM208.584 23.8975C203.936 23.8975 199.298 24.3373 195.117 25.2168L192.708 25.7195C192.308 25.8058 192.308 26.0257 192.708 26.1121L195.327 26.6383C199.412 27.4629 203.917 27.8791 208.432 27.8791C211.603 27.8791 214.784 27.6749 217.841 27.2587L226.203 26.12C226.708 26.0493 226.708 25.7744 226.212 25.7037L218.46 24.5886C215.26 24.1252 211.908 23.8975 208.574 23.8975H208.584Z" fill="#0C1A81"/>
<path d="M208.584 32.4734C211.908 32.4734 215.165 32.7012 218.27 33.1488L220.822 33.5179L217.66 33.9499C214.689 34.3582 211.584 34.5624 208.441 34.5624C204.355 34.5624 200.279 34.209 196.584 33.5336C200.317 32.8425 204.441 32.4813 208.584 32.4813V32.4734ZM208.584 31.531C203.936 31.531 199.298 31.9708 195.117 32.8504L192.708 33.353C192.308 33.4394 192.308 33.6593 192.708 33.7457L195.327 34.2718C199.412 35.0964 203.917 35.5127 208.432 35.5127C211.603 35.5127 214.784 35.3085 217.841 34.8923L226.203 33.7535C226.708 33.6828 226.708 33.408 226.212 33.3373L218.46 32.2221C215.26 31.7588 211.908 31.531 208.574 31.531H208.584Z" fill="#0C1A81"/>
<path d="M171.612 9.58063C171.612 9.58063 171.651 9.58063 171.67 9.60419C171.689 9.6199 171.689 9.63561 171.689 9.64346L166.108 22.633V22.6566L166.089 22.6801C166.089 22.6801 166.07 22.7194 166.022 22.7194C165.974 22.7194 165.965 22.7037 165.955 22.6723V22.6408L165.927 22.6094L160.346 9.64346C160.346 9.64346 160.346 9.6199 160.365 9.61205C160.384 9.58849 160.412 9.58849 160.422 9.58849H171.622L171.612 9.58063ZM171.622 8.63037H160.412C159.603 8.63037 159.022 9.2665 159.232 9.91048L164.841 22.9314C165.003 23.4262 165.517 23.6775 166.022 23.6775C166.527 23.6775 167.022 23.434 167.193 22.955L172.793 9.92618C173.022 9.2822 172.432 8.63822 171.622 8.63822V8.63037Z" fill="#0C1A81"/>
<path d="M155.479 32.2849L157.127 35.819H153.698L155.479 32.2849ZM155.508 30.2666C155.365 30.2666 155.212 30.3294 155.155 30.4629L152.203 36.3216C152.098 36.5336 152.289 36.7614 152.555 36.7614H158.241C158.508 36.7614 158.698 36.5336 158.603 36.3294L155.87 30.4708C155.803 30.3373 155.66 30.2666 155.508 30.2666Z" fill="#0C1A81"/>
<path d="M175.593 32.2849L177.241 35.819H173.812L175.593 32.2849ZM175.622 30.2666C175.479 30.2666 175.327 30.3294 175.27 30.4629L172.317 36.3216C172.212 36.5336 172.403 36.7614 172.67 36.7614H178.355C178.622 36.7614 178.812 36.5336 178.717 36.3294L175.984 30.4708C175.917 30.3373 175.774 30.2666 175.622 30.2666Z" fill="#0C1A81"/>
<path d="M145.326 8.95257L143.152 16.8323L144.721 17.1268L146.896 9.24707L145.326 8.95257Z" fill="#0C1A81"/>
<path d="M185.896 8.94732L184.306 9.15356L185.829 17.1365L187.419 16.9303L185.896 8.94732Z" fill="#0C1A81"/>
<path d="M251.412 116.081L262.755 138.691C263.041 139.35 263.765 139.774 264.622 139.774C265.479 139.774 266.241 139.327 266.508 138.651L278.279 116.332L283.765 141.848H281.67L276.308 129.384C276.022 128.733 275.298 128.308 274.46 128.308C273.612 128.308 272.879 128.733 272.603 129.4L267.374 141.856H261.089L255.955 129.62C255.679 128.96 254.955 128.528 254.108 128.528C253.212 128.528 252.46 129.007 252.212 129.714L248.117 141.848H245.479L251.412 116.073V116.081ZM251.289 114.416C250.946 114.416 250.612 114.581 250.508 114.911L244.289 141.95C244.155 142.374 244.536 142.79 245.07 142.79H248.384C248.746 142.79 249.07 142.594 249.165 142.303L253.336 129.958C253.441 129.636 253.784 129.471 254.117 129.471C254.431 129.471 254.755 129.62 254.879 129.918L260.089 142.342C260.203 142.609 260.508 142.79 260.851 142.79H267.622C267.965 142.79 268.279 142.609 268.384 142.342L273.689 129.699C273.812 129.4 274.136 129.251 274.451 129.251C274.765 129.251 275.089 129.4 275.212 129.699L280.651 142.35C280.765 142.617 281.07 142.798 281.412 142.798H284.155C284.698 142.798 285.089 142.358 284.927 141.934L279.174 115.146C279.06 114.832 278.727 114.675 278.403 114.675C278.079 114.675 277.736 114.84 277.622 115.162L265.412 138.314C265.298 138.644 264.955 138.816 264.612 138.816C264.27 138.816 263.955 138.659 263.822 138.345L252.051 114.879C251.927 114.573 251.603 114.424 251.279 114.424L251.289 114.416Z" fill="#0C1A81"/>
<path d="M213.079 118.452L213.898 121.924C215.289 127.806 214.993 134.332 213.089 139.876C211.098 134.167 210.822 127.46 212.336 121.413L213.079 118.444V118.452ZM213.098 114.526C212.974 114.526 212.851 114.628 212.803 114.832L211.203 121.225C209.622 127.539 209.955 134.552 212.098 140.489L212.822 142.476C212.879 142.641 212.993 142.719 213.098 142.719C213.203 142.719 213.317 142.633 213.374 142.468L214.127 140.308C216.136 134.568 216.46 127.845 215.012 121.743L213.384 114.848C213.336 114.636 213.212 114.533 213.089 114.533L213.098 114.526Z" fill="#0C1A81"/>
<path d="M223.146 118.452L223.965 121.924C225.355 127.806 225.06 134.332 223.155 139.876C221.165 134.167 220.889 127.46 222.403 121.413L223.146 118.444V118.452ZM223.165 114.526C223.041 114.526 222.917 114.628 222.87 114.832L221.27 121.225C219.689 127.539 220.022 134.552 222.165 140.489L222.889 142.476C222.946 142.641 223.06 142.719 223.165 142.719C223.27 142.719 223.384 142.633 223.441 142.468L224.193 140.308C226.203 134.568 226.527 127.845 225.079 121.743L223.451 114.848C223.403 114.636 223.279 114.533 223.155 114.533L223.165 114.526Z" fill="#0C1A81"/>
<path d="M233.222 118.452L234.041 121.924C235.431 127.806 235.136 134.332 233.231 139.876C231.241 134.167 230.965 127.46 232.479 121.413L233.222 118.444V118.452ZM233.241 114.526C233.117 114.526 232.993 114.628 232.946 114.832L231.346 121.225C229.765 127.539 230.098 134.552 232.241 140.489L232.965 142.476C233.022 142.641 233.136 142.719 233.241 142.719C233.346 142.719 233.46 142.633 233.517 142.468L234.27 140.308C236.279 134.568 236.603 127.845 235.155 121.743L233.527 114.848C233.479 114.636 233.355 114.533 233.231 114.533L233.241 114.526Z" fill="#0C1A81"/>
<path d="M200.755 115.562L200.851 125.175L190.032 115.61L200.755 115.562ZM201.546 114.596C201.546 114.596 201.479 114.596 201.441 114.612L188.079 114.675C187.86 114.73 187.755 114.942 187.879 115.107L201.365 127.028C201.441 127.123 201.546 127.17 201.66 127.17C201.841 127.17 202.022 127.06 202.022 126.879L201.898 114.903C201.898 114.738 201.736 114.612 201.546 114.612V114.596Z" fill="#0C1A81"/>
<path d="M146.603 115.625L134.536 124.908L134.479 115.712L146.603 115.625ZM148.632 114.659L133.67 114.761C133.422 114.761 133.251 114.958 133.327 115.146L133.403 126.494C133.451 126.628 133.603 126.706 133.755 126.706C133.822 126.706 133.889 126.691 133.946 126.659L148.831 115.209C149.146 115.052 149.003 114.651 148.641 114.651L148.632 114.659Z" fill="#0C1A81"/>
<path d="M270.736 115.617C270.736 115.617 270.774 115.617 270.793 115.641C270.812 115.657 270.812 115.672 270.812 115.68L265.232 128.67V128.693L265.212 128.717C265.212 128.717 265.193 128.756 265.146 128.756C265.098 128.756 265.089 128.74 265.079 128.709V128.677L265.051 128.646L259.47 115.68C259.47 115.68 259.47 115.657 259.489 115.649C259.508 115.625 259.536 115.625 259.546 115.625H270.746L270.736 115.617ZM270.746 114.667H259.536C258.727 114.667 258.146 115.303 258.355 115.947L263.965 128.968C264.127 129.463 264.641 129.714 265.146 129.714C265.651 129.714 266.146 129.471 266.317 128.992L271.917 115.963C272.146 115.319 271.555 114.675 270.746 114.675V114.667Z" fill="#0C1A81"/>
<path d="M254.593 138.322L256.241 141.856H252.812L254.593 138.322ZM254.622 136.303C254.479 136.303 254.327 136.366 254.27 136.5L251.317 142.358C251.212 142.57 251.403 142.798 251.67 142.798H257.355C257.622 142.798 257.812 142.57 257.717 142.366L254.984 136.507C254.917 136.374 254.774 136.303 254.622 136.303Z" fill="#0C1A81"/>
<path d="M274.717 138.322L276.365 141.856H272.936L274.717 138.322ZM274.746 136.303C274.603 136.303 274.451 136.366 274.393 136.5L271.441 142.358C271.336 142.57 271.527 142.798 271.793 142.798H277.479C277.746 142.798 277.936 142.57 277.841 142.366L275.108 136.507C275.041 136.374 274.898 136.303 274.746 136.303Z" fill="#0C1A81"/>
<path d="M169.098 116.246C175.908 116.246 181.793 118.076 186.593 121.672C191.46 125.324 195.336 130.877 198.117 138.172C198.336 138.761 198.679 139.649 198.898 140.481C199.108 141.267 199.136 141.699 199.117 141.918H194.098C194.031 141.596 193.946 141.102 193.851 140.34C193.784 139.798 193.727 139.327 193.631 138.973C192.765 135.832 190.955 131.254 187.27 127.303C182.612 122.316 176.336 119.788 168.622 119.788C161.736 119.788 155.66 121.853 150.546 125.921C145.87 129.644 142.812 134.379 140.917 137.623C139.974 139.233 139.755 140.733 139.593 141.824V141.911H134.879C134.784 141.102 135.67 138.793 136.012 137.882V137.866C136.146 137.528 136.27 137.199 136.393 136.877C139.555 128.309 151.784 116.246 169.098 116.246ZM169.098 115.295C151.203 115.295 138.555 127.751 135.298 136.602C135.174 136.932 135.051 137.269 134.917 137.607C134.231 139.398 133.298 141.856 133.965 142.602C134.022 142.665 134.203 142.869 134.927 142.869H140.565C140.631 142.649 140.689 142.264 140.736 141.942C140.889 140.913 141.098 139.5 141.955 138.039C146.289 130.617 153.774 120.746 168.622 120.746C185.593 120.746 190.984 133.641 192.517 139.193C192.603 139.484 192.651 139.932 192.717 140.442C192.793 141.055 192.965 142.413 193.222 142.877H199.222C199.841 142.877 199.993 142.704 200.051 142.641C200.727 141.879 199.708 139.193 199.212 137.898C193.508 122.905 183.374 115.303 169.108 115.303L169.098 115.295Z" fill="#0C1A81"/>
<path d="M169.651 126.644C173.832 126.644 177.451 127.767 180.403 129.989C183.422 132.259 185.832 135.73 187.574 140.293C187.86 141.047 188.022 141.557 188.108 141.887L183.517 141.777C183.489 141.581 183.46 141.392 183.451 141.274C183.403 140.89 183.365 140.591 183.298 140.332L183.165 139.853C182.565 137.638 181.879 135.125 179.946 133.17C177.717 130.9 174.241 129.801 169.346 129.801C158.946 129.801 156.155 134.583 153.46 139.201L153.289 139.484C152.765 140.379 152.565 141.227 152.451 141.895H148.508C148.612 141.479 148.822 140.882 149.117 140.089L149.136 140.049C149.212 139.845 149.298 139.641 149.365 139.437C151.327 134.12 158.917 126.628 169.651 126.628V126.644ZM169.651 125.678C158.327 125.678 150.327 133.562 148.26 139.162C148.184 139.374 148.098 139.594 148.012 139.806C147.67 140.717 147.022 142.405 147.355 142.782C147.384 142.814 147.508 142.845 147.717 142.845H153.46C153.479 142.735 153.498 142.602 153.517 142.484C153.622 141.808 153.755 140.874 154.327 139.892L154.498 139.602C157.155 135.047 159.67 130.735 169.346 130.735C179.498 130.735 180.851 135.683 182.041 140.041L182.174 140.521C182.232 140.725 182.27 141 182.308 141.353C182.355 141.699 182.432 142.35 182.546 142.688L188.993 142.837C189.155 142.837 189.241 142.814 189.26 142.79C189.603 142.405 188.908 140.583 188.679 139.979C185.06 130.476 178.66 125.662 169.66 125.662L169.651 125.678Z" fill="#0C1A81"/>
<path d="M168.927 136.688C172.193 136.688 174.508 138.4 175.965 141.911H160.641C161.47 139.727 164.565 136.688 168.927 136.688ZM168.927 135.738C163.955 135.738 160.431 139.209 159.527 141.675L159.412 141.973C159.317 142.225 159.174 142.602 159.117 142.861H177.498C177.441 142.594 177.298 142.209 177.241 142.06C175.641 137.866 172.851 135.738 168.936 135.738H168.927Z" fill="#0C1A81"/>
<path d="M244.439 114.977L242.264 122.856L243.834 123.151L246.008 115.271L244.439 114.977Z" fill="#0C1A81"/>
<path d="M245.727 80.2849L233.66 89.5676L233.603 80.3712L245.727 80.2849ZM247.755 79.3189L232.793 79.421C232.546 79.421 232.374 79.6173 232.451 79.8058L232.527 91.154C232.574 91.2875 232.727 91.366 232.879 91.366C232.946 91.366 233.012 91.3503 233.07 91.3189L247.955 79.8686C248.27 79.7116 248.127 79.311 247.765 79.311L247.755 79.3189Z" fill="#0C1A81"/>
<path d="M268.222 80.8975C275.031 80.8975 280.917 82.7274 285.717 86.3242C290.584 89.9761 294.46 95.5284 297.241 102.824C297.46 103.413 297.803 104.301 298.022 105.133C298.231 105.918 298.26 106.35 298.241 106.57H293.222C293.155 106.248 293.07 105.754 292.974 104.992C292.908 104.45 292.85 103.979 292.755 103.625C291.889 100.484 290.079 95.9054 286.393 91.9551C281.736 86.9682 275.46 84.4394 267.746 84.4394C260.86 84.4394 254.784 86.5049 249.67 90.5729C244.993 94.2954 241.936 99.031 240.041 102.274C239.098 103.884 238.879 105.384 238.717 106.476V106.562H234.003C233.908 105.754 234.793 103.445 235.136 102.534V102.518C235.27 102.18 235.393 101.85 235.517 101.528C238.679 92.9604 250.908 80.8975 268.222 80.8975ZM268.222 79.9473C250.327 79.9473 237.679 92.4028 234.422 101.254C234.298 101.583 234.174 101.921 234.041 102.259C233.355 104.049 232.422 106.507 233.089 107.254C233.146 107.316 233.327 107.521 234.05 107.521H239.689C239.755 107.301 239.812 106.916 239.86 106.594C240.012 105.565 240.222 104.151 241.079 102.691C245.412 95.2693 252.898 85.3975 267.746 85.3975C284.717 85.3975 290.108 98.2928 291.641 103.845C291.727 104.136 291.774 104.583 291.841 105.094C291.917 105.706 292.089 107.065 292.346 107.528H298.346C298.965 107.528 299.117 107.356 299.174 107.293C299.85 106.531 298.831 103.845 298.336 102.549C292.631 87.5572 282.498 79.9551 268.231 79.9551L268.222 79.9473Z" fill="#0C1A81"/>
<path d="M268.774 91.2954C272.955 91.2954 276.574 92.4184 279.527 94.6409C282.546 96.9106 284.955 100.382 286.698 104.945C286.984 105.699 287.146 106.209 287.231 106.539L282.641 106.429C282.612 106.233 282.584 106.044 282.574 105.926C282.527 105.541 282.489 105.243 282.422 104.984L282.289 104.505C281.689 102.29 281.003 99.7771 279.07 97.8216C276.841 95.5519 273.365 94.4525 268.47 94.4525C258.07 94.4525 255.279 99.2352 252.584 103.853L252.412 104.136C251.889 105.031 251.689 105.879 251.574 106.547H247.631C247.736 106.13 247.946 105.534 248.241 104.74L248.26 104.701C248.336 104.497 248.422 104.293 248.489 104.089C250.451 98.7718 258.041 91.2797 268.774 91.2797V91.2954ZM268.774 90.3294C257.451 90.3294 249.451 98.2142 247.384 103.814C247.308 104.026 247.222 104.246 247.136 104.458C246.793 105.369 246.146 107.057 246.479 107.434C246.508 107.466 246.631 107.497 246.841 107.497H252.584C252.603 107.387 252.622 107.254 252.641 107.136C252.746 106.46 252.879 105.526 253.451 104.544L253.622 104.254C256.279 99.6985 258.793 95.387 268.47 95.387C278.622 95.387 279.974 100.335 281.165 104.693L281.298 105.172C281.355 105.377 281.393 105.651 281.431 106.005C281.479 106.35 281.555 107.002 281.67 107.34L288.117 107.489C288.279 107.489 288.365 107.466 288.384 107.442C288.727 107.057 288.031 105.235 287.803 104.63C284.184 95.1279 277.784 90.3137 268.784 90.3137L268.774 90.3294Z" fill="#0C1A81"/>
<path d="M268.041 101.34C271.308 101.34 273.622 103.052 275.079 106.562H259.755C260.584 104.379 263.679 101.34 268.041 101.34ZM268.041 100.39C263.07 100.39 259.546 103.861 258.641 106.327L258.527 106.625C258.431 106.877 258.289 107.254 258.231 107.513H276.612C276.555 107.246 276.412 106.861 276.355 106.712C274.755 102.518 271.965 100.39 268.05 100.39H268.041Z" fill="#0C1A81"/>
<path d="M152.289 80.7326L163.632 103.343C163.917 104.002 164.641 104.426 165.498 104.426C166.355 104.426 167.117 103.979 167.384 103.303L179.155 80.9839L184.641 106.5H182.546L177.184 94.0362C176.898 93.3844 176.174 92.9603 175.336 92.9603C174.489 92.9603 173.755 93.3844 173.479 94.0519L168.251 106.507H161.965L156.832 94.2718C156.555 93.6121 155.832 93.1802 154.984 93.1802C154.089 93.1802 153.336 93.6593 153.089 94.3661L148.993 106.5H146.355L152.289 80.7247V80.7326ZM152.165 79.0676C151.822 79.0676 151.489 79.2326 151.384 79.5624L145.165 106.602C145.032 107.026 145.412 107.442 145.946 107.442H149.26C149.622 107.442 149.946 107.246 150.041 106.955L154.212 94.6095C154.317 94.2875 154.66 94.1226 154.993 94.1226C155.308 94.1226 155.632 94.2718 155.755 94.5703L160.965 106.994C161.079 107.261 161.384 107.442 161.727 107.442H168.498C168.841 107.442 169.155 107.261 169.26 106.994L174.565 94.3504C174.689 94.0519 175.012 93.9027 175.327 93.9027C175.641 93.9027 175.965 94.0519 176.089 94.3504L181.527 107.002C181.641 107.269 181.946 107.45 182.289 107.45H185.031C185.574 107.45 185.965 107.01 185.803 106.586L180.051 79.798C179.936 79.4839 179.603 79.3268 179.279 79.3268C178.955 79.3268 178.612 79.4917 178.498 79.8137L166.289 102.966C166.174 103.295 165.832 103.468 165.489 103.468C165.146 103.468 164.832 103.311 164.698 102.997L152.927 79.531C152.803 79.2247 152.479 79.0755 152.155 79.0755L152.165 79.0676Z" fill="#0C1A81"/>
<path d="M134.098 83.1042L134.917 86.5754C136.308 92.4576 136.012 98.9838 134.108 104.528C132.117 98.8189 131.841 92.112 133.355 86.0649L134.098 83.0963V83.1042ZM134.117 79.1775C133.993 79.1775 133.87 79.2796 133.822 79.4838L132.222 85.8764C130.641 92.1906 130.974 99.2037 133.117 105.141L133.841 107.128C133.898 107.293 134.012 107.371 134.117 107.371C134.222 107.371 134.336 107.285 134.393 107.12L135.146 104.96C137.155 99.2194 137.479 92.4969 136.032 86.3948L134.403 79.4995C134.355 79.2874 134.232 79.1853 134.108 79.1853L134.117 79.1775Z" fill="#0C1A81"/>
<path d="M208.584 80.2771C211.908 80.2771 215.165 80.5049 218.27 80.9525L220.822 81.3216L217.66 81.7536C214.689 82.1619 211.584 82.3661 208.441 82.3661C204.355 82.3661 200.279 82.0127 196.584 81.3373C200.317 80.6462 204.441 80.285 208.584 80.285V80.2771ZM208.584 79.3347C203.936 79.3347 199.298 79.7745 195.117 80.6541L192.708 81.1567C192.308 81.2431 192.308 81.463 192.708 81.5494L195.327 82.0756C199.412 82.9002 203.917 83.3164 208.432 83.3164C211.603 83.3164 214.784 83.1122 217.841 82.696L226.203 81.5572C226.708 81.4866 226.708 81.2117 226.212 81.141L218.46 80.0258C215.26 79.5625 211.908 79.3347 208.574 79.3347H208.584Z" fill="#0C1A81"/>
<path d="M208.584 87.9026C211.908 87.9026 215.165 88.1304 218.27 88.578L220.822 88.9471L217.66 89.3791C214.689 89.7874 211.584 89.9916 208.441 89.9916C204.355 89.9916 200.279 89.6382 196.584 88.9628C200.317 88.2717 204.441 87.9105 208.584 87.9105V87.9026ZM208.584 86.9602C203.936 86.9602 199.298 87.4 195.117 88.2796L192.708 88.7822C192.308 88.8686 192.308 89.0885 192.708 89.1749L195.327 89.701C199.412 90.5256 203.917 90.9419 208.432 90.9419C211.603 90.9419 214.784 90.7377 217.841 90.3215L226.203 89.1827C226.708 89.112 226.708 88.8372 226.212 88.7665L218.46 87.6513C215.26 87.188 211.908 86.9602 208.574 86.9602H208.584Z" fill="#0C1A81"/>
<path d="M208.584 95.5362C211.908 95.5362 215.165 95.7639 218.27 96.2115L220.822 96.5807L217.66 97.0126C214.689 97.421 211.584 97.6252 208.441 97.6252C204.355 97.6252 200.279 97.2718 196.584 96.5964C200.317 95.9053 204.441 95.544 208.584 95.544V95.5362ZM208.584 94.5938C203.936 94.5938 199.298 95.0335 195.117 95.9131L192.708 96.4157C192.308 96.5021 192.308 96.722 192.708 96.8084L195.327 97.3346C199.412 98.1592 203.917 98.5754 208.432 98.5754C211.603 98.5754 214.784 98.3712 217.841 97.955L226.203 96.8163C226.708 96.7456 226.708 96.4707 226.212 96.4L218.46 95.2848C215.26 94.8215 211.908 94.5938 208.574 94.5938H208.584Z" fill="#0C1A81"/>
<path d="M208.584 103.162C211.908 103.162 215.165 103.39 218.27 103.837L220.822 104.206L217.66 104.638C214.689 105.047 211.584 105.251 208.441 105.251C204.355 105.251 200.279 104.897 196.584 104.222C200.317 103.531 204.441 103.17 208.584 103.17V103.162ZM208.584 102.219C203.936 102.219 199.298 102.659 195.117 103.539L192.708 104.041C192.308 104.128 192.308 104.348 192.708 104.434L195.327 104.96C199.412 105.785 203.917 106.201 208.432 106.201C211.603 106.201 214.784 105.997 217.841 105.581L226.203 104.442C226.708 104.371 226.708 104.096 226.212 104.026L218.46 102.911C215.26 102.447 211.908 102.219 208.574 102.219H208.584Z" fill="#0C1A81"/>
<path d="M171.612 80.2691C171.612 80.2691 171.651 80.2691 171.67 80.2927C171.689 80.3084 171.689 80.3241 171.689 80.3319L166.108 93.3215V93.345L166.089 93.3686C166.089 93.3686 166.07 93.4079 166.022 93.4079C165.974 93.4079 165.965 93.3922 165.955 93.3607V93.3293L165.927 93.2979L160.346 80.3319C160.346 80.3319 160.346 80.3084 160.365 80.3005C160.384 80.277 160.412 80.277 160.422 80.277H171.622L171.612 80.2691ZM171.622 79.3188H160.412C159.603 79.3188 159.022 79.955 159.232 80.599L164.841 93.6199C165.003 94.1147 165.517 94.366 166.022 94.366C166.527 94.366 167.022 94.1225 167.193 93.6435L172.793 80.6147C173.022 79.9707 172.432 79.3267 171.622 79.3267V79.3188Z" fill="#0C1A81"/>
<path d="M155.479 102.973L157.127 106.507H153.698L155.479 102.973ZM155.508 100.955C155.365 100.955 155.212 101.018 155.155 101.151L152.203 107.01C152.098 107.222 152.289 107.45 152.555 107.45H158.241C158.508 107.45 158.698 107.222 158.603 107.018L155.87 101.159C155.803 101.026 155.66 100.955 155.508 100.955Z" fill="#0C1A81"/>
<path d="M175.593 102.973L177.241 106.507H173.812L175.593 102.973ZM175.622 100.955C175.479 100.955 175.327 101.018 175.27 101.151L172.317 107.01C172.212 107.222 172.403 107.45 172.67 107.45H178.355C178.622 107.45 178.812 107.222 178.717 107.018L175.984 101.159C175.917 101.026 175.774 100.955 175.622 100.955Z" fill="#0C1A81"/>
<path d="M145.323 79.6349L143.148 87.5146L144.717 87.8091L146.892 79.9294L145.323 79.6349Z" fill="#0C1A81"/>
<path d="M185.893 79.6409L184.303 79.8472L185.826 87.8301L187.416 87.6239L185.893 79.6409Z" fill="#0C1A81"/>
<path d="M251.412 45.3844L262.755 67.9944C263.041 68.654 263.765 69.0781 264.622 69.0781C265.479 69.0781 266.241 68.6305 266.508 67.9551L278.279 45.6357L283.765 71.1514H281.67L276.308 58.6881C276.022 58.0362 275.298 57.6122 274.46 57.6122C273.612 57.6122 272.879 58.0362 272.603 58.7038L267.374 71.1593H261.089L255.955 58.9237C255.679 58.264 254.955 57.8321 254.108 57.8321C253.212 57.8321 252.46 58.3111 252.212 59.0179L248.117 71.1514H245.479L251.412 45.3766V45.3844ZM251.289 43.7195C250.946 43.7195 250.612 43.8844 250.508 44.2142L244.289 71.2535C244.155 71.6776 244.536 72.0938 245.07 72.0938H248.384C248.746 72.0938 249.07 71.8975 249.165 71.6069L253.336 59.2614C253.441 58.9394 253.784 58.7745 254.117 58.7745C254.431 58.7745 254.755 58.9237 254.879 59.2221L260.089 71.6462C260.203 71.9132 260.508 72.0938 260.851 72.0938H267.622C267.965 72.0938 268.279 71.9132 268.384 71.6462L273.689 59.0022C273.812 58.7038 274.136 58.5546 274.451 58.5546C274.765 58.5546 275.089 58.7038 275.212 59.0022L280.651 71.654C280.765 71.9211 281.07 72.1017 281.412 72.1017H284.155C284.698 72.1017 285.089 71.6619 284.927 71.2378L279.174 44.4498C279.06 44.1357 278.727 43.9786 278.403 43.9786C278.079 43.9786 277.736 44.1436 277.622 44.4656L265.412 67.6174C265.298 67.9472 264.955 68.12 264.612 68.12C264.27 68.12 263.955 67.9629 263.822 67.6488L252.051 44.1828C251.927 43.8766 251.603 43.7273 251.279 43.7273L251.289 43.7195Z" fill="#0C1A81"/>
<path d="M213.079 47.756L213.898 51.2273C215.289 57.1095 214.993 63.6356 213.089 69.1801C211.098 63.4707 210.822 56.7639 212.336 50.7168L213.079 47.7482V47.756ZM213.098 43.8293C212.974 43.8293 212.851 43.9314 212.803 44.1356L211.203 50.5283C209.622 56.8424 209.955 63.8555 212.098 69.7927L212.822 71.7796C212.879 71.9445 212.993 72.0231 213.098 72.0231C213.203 72.0231 213.317 71.9367 213.374 71.7718L214.127 69.6121C216.136 63.8712 216.46 57.1487 215.012 51.0466L213.384 44.1513C213.336 43.9393 213.212 43.8372 213.089 43.8372L213.098 43.8293Z" fill="#0C1A81"/>
<path d="M223.146 47.756L223.965 51.2273C225.355 57.1095 225.06 63.6356 223.155 69.1801C221.165 63.4707 220.889 56.7639 222.403 50.7168L223.146 47.7482V47.756ZM223.165 43.8293C223.041 43.8293 222.917 43.9314 222.87 44.1356L221.27 50.5283C219.689 56.8424 220.022 63.8555 222.165 69.7927L222.889 71.7796C222.946 71.9445 223.06 72.0231 223.165 72.0231C223.27 72.0231 223.384 71.9367 223.441 71.7718L224.193 69.6121C226.203 63.8712 226.527 57.1487 225.079 51.0466L223.451 44.1513C223.403 43.9393 223.279 43.8372 223.155 43.8372L223.165 43.8293Z" fill="#0C1A81"/>
<path d="M233.222 47.756L234.041 51.2273C235.431 57.1095 235.136 63.6356 233.231 69.1801C231.241 63.4707 230.965 56.7639 232.479 50.7168L233.222 47.7482V47.756ZM233.241 43.8293C233.117 43.8293 232.993 43.9314 232.946 44.1356L231.346 50.5283C229.765 56.8424 230.098 63.8555 232.241 69.7927L232.965 71.7796C233.022 71.9445 233.136 72.0231 233.241 72.0231C233.346 72.0231 233.46 71.9367 233.517 71.7718L234.27 69.6121C236.279 63.8712 236.603 57.1487 235.155 51.0466L233.527 44.1513C233.479 43.9393 233.355 43.8372 233.231 43.8372L233.241 43.8293Z" fill="#0C1A81"/>
<path d="M270.736 44.929C270.736 44.929 270.774 44.929 270.793 44.9526C270.812 44.9683 270.812 44.984 270.812 44.9918L265.231 57.9814V58.0049L265.212 58.0285C265.212 58.0285 265.193 58.0678 265.146 58.0678C265.098 58.0678 265.089 58.0521 265.079 58.0206V57.9892L265.05 57.9578L259.47 44.9918C259.47 44.9918 259.47 44.9683 259.489 44.9604C259.508 44.9369 259.536 44.9369 259.546 44.9369H270.746L270.736 44.929ZM270.746 43.9788H259.536C258.727 43.9788 258.146 44.6149 258.355 45.2589L263.965 58.2798C264.127 58.7746 264.641 59.0259 265.146 59.0259C265.651 59.0259 266.146 58.7824 266.317 58.3034L271.917 45.2746C272.146 44.6306 271.555 43.9866 270.746 43.9866V43.9788Z" fill="#0C1A81"/>
<path d="M254.593 67.6253L256.241 71.1593H252.812L254.593 67.6253ZM254.622 65.6069C254.479 65.6069 254.327 65.6698 254.27 65.8033L251.317 71.6619C251.212 71.8739 251.403 72.1017 251.67 72.1017H257.355C257.622 72.1017 257.812 71.874 257.717 71.6698L254.984 65.8111C254.917 65.6776 254.774 65.6069 254.622 65.6069Z" fill="#0C1A81"/>
<path d="M274.717 67.6253L276.365 71.1593H272.936L274.717 67.6253ZM274.746 65.6069C274.603 65.6069 274.451 65.6698 274.393 65.8033L271.441 71.6619C271.336 71.8739 271.527 72.1017 271.793 72.1017H277.479C277.746 72.1017 277.936 71.874 277.841 71.6698L275.108 65.8111C275.041 65.6776 274.898 65.6069 274.746 65.6069Z" fill="#0C1A81"/>
<path d="M169.098 45.5494C175.908 45.5494 181.793 47.3792 186.593 50.9761C191.46 54.6279 195.336 60.1803 198.117 67.4761C198.336 68.0651 198.679 68.9525 198.898 69.785C199.108 70.5703 199.136 71.0023 199.117 71.2222H194.098C194.031 70.9002 193.946 70.4054 193.851 69.6436C193.784 69.1017 193.727 68.6305 193.631 68.2771C192.765 65.1358 190.955 60.5572 187.27 56.607C182.612 51.6201 176.336 49.0913 168.622 49.0913C161.736 49.0913 155.66 51.1567 150.546 55.2248C145.87 58.9473 142.812 63.6829 140.917 66.9263C139.974 68.5363 139.755 70.0363 139.593 71.1279V71.2143H134.879C134.784 70.4054 135.67 68.0965 136.012 67.1855V67.1698C136.146 66.8321 136.27 66.5023 136.393 66.1803C139.555 57.6122 151.784 45.5494 169.098 45.5494ZM169.098 44.5991C151.203 44.5991 138.555 57.0546 135.298 65.9054C135.174 66.2352 135.051 66.5729 134.917 66.9106C134.231 68.7012 133.298 71.1593 133.965 71.9054C134.022 71.9682 134.203 72.1724 134.927 72.1724H140.565C140.631 71.9525 140.689 71.5677 140.736 71.2457C140.889 70.2169 141.098 68.8033 141.955 67.3426C146.289 59.9211 153.774 50.0494 168.622 50.0494C185.593 50.0494 190.984 62.9447 192.517 68.497C192.603 68.7876 192.651 69.2352 192.717 69.7457C192.793 70.3583 192.965 71.7169 193.222 72.1803H199.222C199.841 72.1803 199.993 72.0075 200.051 71.9447C200.727 71.1829 199.708 68.497 199.212 67.2012C193.508 52.2091 183.374 44.607 169.108 44.607L169.098 44.5991Z" fill="#0C1A81"/>
<path d="M169.651 55.9551C173.832 55.9551 177.451 57.0781 180.403 59.3006C183.422 61.5702 185.832 65.0415 187.574 69.6043C187.86 70.3582 188.022 70.8687 188.108 71.1985L183.517 71.0886C183.489 70.8922 183.46 70.7038 183.451 70.586C183.403 70.2011 183.365 69.9027 183.298 69.6435L183.165 69.1645C182.565 66.9498 181.879 64.4367 179.946 62.4812C177.717 60.2116 174.241 59.1121 169.346 59.1121C158.946 59.1121 156.155 63.8949 153.46 68.5127L153.289 68.7954C152.765 69.6907 152.565 70.5388 152.451 71.2064H148.508C148.612 70.7901 148.822 70.1933 149.117 69.4001L149.136 69.3608C149.212 69.1566 149.298 68.9524 149.365 68.7483C151.327 63.4315 158.917 55.9394 169.651 55.9394V55.9551ZM169.651 54.9891C158.327 54.9891 150.327 62.8739 148.26 68.4734C148.184 68.6854 148.098 68.9053 148.012 69.1174C147.67 70.0284 147.022 71.7168 147.355 72.0938C147.384 72.1252 147.508 72.1566 147.717 72.1566H153.46C153.479 72.0467 153.498 71.9132 153.517 71.7954C153.622 71.12 153.755 70.1854 154.327 69.2038L154.498 68.9132C157.155 64.3582 159.67 60.0467 169.346 60.0467C179.498 60.0467 180.851 64.9943 182.041 69.353L182.174 69.832C182.232 70.0362 182.27 70.3111 182.308 70.6645C182.355 71.01 182.432 71.6619 182.546 71.9996L188.993 72.1488C189.155 72.1488 189.241 72.1252 189.26 72.1017C189.603 71.7168 188.908 69.8949 188.679 69.2901C185.06 59.7875 178.66 54.9734 169.66 54.9734L169.651 54.9891Z" fill="#0C1A81"/>
<path d="M168.927 65.9996C172.193 65.9996 174.508 67.7116 175.965 71.2221H160.641C161.47 69.0388 164.565 65.9996 168.927 65.9996ZM168.927 65.0493C163.955 65.0493 160.431 68.5205 159.527 70.9865L159.412 71.2849C159.317 71.5362 159.174 71.9132 159.117 72.1724H177.498C177.441 71.9053 177.298 71.5205 177.241 71.3713C175.641 67.1776 172.851 65.0493 168.936 65.0493H168.927Z" fill="#0C1A81"/>
<path d="M53.1647 45.3844L64.5076 67.9944C64.7933 68.654 65.5171 69.0781 66.3743 69.0781C67.2314 69.0781 67.9933 68.6305 68.26 67.9551L80.0314 45.6357L85.5171 71.1514H83.4219L78.06 58.6881C77.7743 58.0362 77.0505 57.6122 76.2124 57.6122C75.3647 57.6122 74.6314 58.0362 74.3552 58.7038L69.1266 71.1593H62.8409L57.7076 58.9237C57.4314 58.264 56.7076 57.8321 55.86 57.8321C54.9647 57.8321 54.2124 58.3111 53.9647 59.0179L49.8695 71.1514H47.2314L53.1647 45.3766V45.3844ZM53.0409 43.7195C52.6981 43.7195 52.3647 43.8844 52.26 44.2142L46.0409 71.2535C45.9076 71.6776 46.2886 72.0938 46.8219 72.0938H50.1362C50.4981 72.0938 50.8219 71.8975 50.9171 71.6069L55.0886 59.2614C55.1933 58.9394 55.5362 58.7745 55.8695 58.7745C56.1838 58.7745 56.5076 58.9237 56.6314 59.2221L61.8409 71.6462C61.9552 71.9132 62.26 72.0938 62.6028 72.0938H69.3743C69.7171 72.0938 70.0314 71.9132 70.1362 71.6462L75.4409 59.0022C75.5647 58.7038 75.8886 58.5546 76.2028 58.5546C76.5171 58.5546 76.8409 58.7038 76.9647 59.0022L82.4028 71.654C82.5171 71.9211 82.8219 72.1017 83.1647 72.1017H85.9076C86.4505 72.1017 86.8409 71.6619 86.679 71.2378L80.9267 44.4498C80.8124 44.1357 80.479 43.9786 80.1552 43.9786C79.8314 43.9786 79.4886 44.1436 79.3743 44.4656L67.1647 67.6174C67.0505 67.9472 66.7076 68.12 66.3647 68.12C66.0219 68.12 65.7076 67.9629 65.5743 67.6488L53.8028 44.1828C53.679 43.8766 53.3552 43.7273 53.0314 43.7273L53.0409 43.7195Z" fill="#0C1A81"/>
<path d="M14.8314 47.756L15.6505 51.2273C17.041 57.1095 16.7457 63.6356 14.841 69.1801C12.8505 63.4707 12.5743 56.7639 14.0886 50.7168L14.8314 47.7482V47.756ZM14.8505 43.8293C14.7267 43.8293 14.6029 43.9314 14.5553 44.1356L12.9553 50.5283C11.3743 56.8424 11.7076 63.8555 13.8505 69.7927L14.5743 71.7796C14.6314 71.9445 14.7457 72.0231 14.8505 72.0231C14.9553 72.0231 15.0695 71.9367 15.1267 71.7718L15.8791 69.6121C17.8886 63.8712 18.2124 57.1487 16.7648 51.0466L15.1362 44.1513C15.0886 43.9393 14.9648 43.8372 14.841 43.8372L14.8505 43.8293Z" fill="#0C1A81"/>
<path d="M24.9076 47.756L25.7267 51.2273C27.1171 57.1095 26.8219 63.6356 24.9171 69.1801C22.9267 63.4707 22.6505 56.7639 24.1648 50.7168L24.9076 47.7482V47.756ZM24.9267 43.8293C24.8029 43.8293 24.679 43.9314 24.6314 44.1356L23.0314 50.5283C21.4505 56.8424 21.7838 63.8555 23.9267 69.7927L24.6505 71.7796C24.7076 71.9445 24.8219 72.0231 24.9267 72.0231C25.0314 72.0231 25.1457 71.9367 25.2029 71.7718L25.9552 69.6121C27.9648 63.8712 28.2886 57.1487 26.841 51.0466L25.2124 44.1513C25.1648 43.9393 25.041 43.8372 24.9171 43.8372L24.9267 43.8293Z" fill="#0C1A81"/>
<path d="M34.9743 47.756L35.7933 51.2273C37.1838 57.1095 36.8886 63.6356 34.9838 69.1801C32.9933 63.4707 32.7171 56.7639 34.2314 50.7168L34.9743 47.7482V47.756ZM34.9933 43.8293C34.8695 43.8293 34.7457 43.9314 34.6981 44.1356L33.0981 50.5283C31.5171 56.8424 31.8505 63.8555 33.9933 69.7927L34.7171 71.7796C34.7743 71.9445 34.8886 72.0231 34.9933 72.0231C35.0981 72.0231 35.2124 71.9367 35.2695 71.7718L36.0219 69.6121C38.0314 63.8712 38.3552 57.1487 36.9076 51.0466L35.279 44.1513C35.2314 43.9393 35.1076 43.8372 34.9838 43.8372L34.9933 43.8293Z" fill="#0C1A81"/>
<path d="M109.46 44.929C112.784 44.929 116.041 45.1567 119.146 45.6044L121.698 45.9735L118.536 46.4054C115.565 46.8138 112.46 47.018 109.317 47.018C105.231 47.018 101.155 46.6646 97.46 45.9892C101.193 45.2981 105.317 44.9368 109.46 44.9368V44.929ZM109.46 43.9866C104.812 43.9866 100.174 44.4264 95.9933 45.3059L93.5838 45.8086C93.1838 45.8949 93.1838 46.1148 93.5838 46.2012L96.2029 46.7274C100.289 47.552 104.793 47.9682 109.308 47.9682C112.479 47.9682 115.66 47.7641 118.717 47.3478L127.079 46.2091C127.584 46.1384 127.584 45.8635 127.089 45.7929L119.336 44.6777C116.136 44.2143 112.784 43.9866 109.45 43.9866H109.46Z" fill="#0C1A81"/>
<path d="M109.46 52.5625C112.784 52.5625 116.041 52.7903 119.146 53.2379L121.698 53.607L118.536 54.039C115.565 54.4473 112.46 54.6515 109.317 54.6515C105.231 54.6515 101.155 54.2981 97.46 53.6227C101.193 52.9316 105.317 52.5704 109.46 52.5704V52.5625ZM109.46 51.6201C104.812 51.6201 100.174 52.0599 95.9933 52.9395L93.5838 53.4421C93.1838 53.5285 93.1838 53.7484 93.5838 53.8348L96.2029 54.361C100.289 55.1856 104.793 55.6018 109.308 55.6018C112.479 55.6018 115.66 55.3976 118.717 54.9814L127.079 53.8426C127.584 53.772 127.584 53.4971 127.089 53.4264L119.336 52.3112C116.136 51.8479 112.784 51.6201 109.45 51.6201H109.46Z" fill="#0C1A81"/>
<path d="M72.4886 44.929C72.4886 44.929 72.5267 44.929 72.5457 44.9526C72.5648 44.9683 72.5648 44.984 72.5648 44.9918L66.9838 57.9814V58.0049L66.9648 58.0285C66.9648 58.0285 66.9457 58.0678 66.8981 58.0678C66.8505 58.0678 66.841 58.0521 66.8314 58.0206V57.9892L66.8029 57.9578L61.2219 44.9918C61.2219 44.9918 61.2219 44.9683 61.241 44.9604C61.26 44.9369 61.2886 44.9369 61.2981 44.9369H72.4981L72.4886 44.929ZM72.4981 43.9788H61.2886C60.4791 43.9788 59.8981 44.6149 60.1076 45.2589L65.7172 58.2798C65.8791 58.7746 66.3934 59.0259 66.8981 59.0259C67.4029 59.0259 67.8981 58.7824 68.0695 58.3034L73.6695 45.2746C73.8981 44.6306 73.3076 43.9866 72.4981 43.9866V43.9788Z" fill="#0C1A81"/>
<path d="M46.206 44.2949L44.0315 52.1746L45.6009 52.4691L47.7754 44.5894L46.206 44.2949Z" fill="#0C1A81"/>
<path d="M86.7709 44.2933L85.1809 44.4995L86.7038 52.4825L88.2938 52.2762L86.7709 44.2933Z" fill="#0C1A81"/>
<path d="M113.955 12.4157L114.774 15.8869C116.165 21.7691 115.87 28.2953 113.965 33.8398C111.974 28.1304 111.698 21.4236 113.212 15.3764L113.955 12.4079V12.4157ZM113.974 8.48901C113.85 8.48901 113.727 8.59111 113.679 8.7953L112.079 15.188C110.498 21.5021 110.831 28.5152 112.974 34.4524L113.698 36.4393C113.755 36.6042 113.87 36.6827 113.974 36.6827C114.079 36.6827 114.193 36.5963 114.25 36.4314L115.003 34.2717C117.012 28.5309 117.336 21.8084 115.889 15.7063L114.26 8.811C114.212 8.59896 114.089 8.49687 113.965 8.49687L113.974 8.48901Z" fill="#0C1A81"/>
<path d="M124.031 12.4157L124.85 15.8869C126.241 21.7691 125.946 28.2953 124.041 33.8398C122.05 28.1304 121.774 21.4236 123.289 15.3764L124.031 12.4079V12.4157ZM124.05 8.48901C123.927 8.48901 123.803 8.59111 123.755 8.7953L122.155 15.188C120.574 21.5021 120.908 28.5152 123.05 34.4524L123.774 36.4393C123.831 36.6042 123.946 36.6827 124.05 36.6827C124.155 36.6827 124.269 36.5963 124.327 36.4314L125.079 34.2717C127.089 28.5309 127.412 21.8084 125.965 15.7063L124.336 8.811C124.289 8.59896 124.165 8.49687 124.041 8.49687L124.05 8.48901Z" fill="#0C1A81"/>
<path d="M101.641 9.52578L101.736 19.1383L90.9171 9.5729L101.641 9.52578ZM102.431 8.55981C102.431 8.55981 102.365 8.55981 102.327 8.57552L88.9647 8.63835C88.7457 8.69332 88.6409 8.90536 88.7648 9.07029L102.25 20.9918C102.327 21.086 102.431 21.1331 102.546 21.1331C102.727 21.1331 102.908 21.0232 102.908 20.8425L102.784 8.8661C102.784 8.70118 102.622 8.57552 102.431 8.57552V8.55981Z" fill="#0C1A81"/>
<path d="M47.4885 9.58857L35.4219 18.8713L35.3647 9.67496L47.4885 9.58857ZM49.5171 8.6226L34.5552 8.72469C34.3076 8.72469 34.1362 8.92103 34.2124 9.10951L34.2885 20.4577C34.3362 20.5912 34.4885 20.6697 34.6409 20.6697C34.7076 20.6697 34.7743 20.654 34.8314 20.6226L49.7171 9.17234C50.0314 9.01527 49.8885 8.61475 49.5266 8.61475L49.5171 8.6226Z" fill="#0C1A81"/>
<path d="M69.9742 10.2088C76.7838 10.2088 82.6695 12.0386 87.4695 15.6355C92.3361 19.2873 96.2123 24.8397 98.9933 32.1355C99.2123 32.7245 99.5552 33.6119 99.7742 34.4444C99.9837 35.2298 100.012 35.6617 99.9933 35.8816H94.9742C94.9076 35.5596 94.8218 35.0648 94.7266 34.303C94.6599 33.7612 94.6028 33.29 94.5076 32.9366C93.6409 29.7952 91.8314 25.2167 88.1457 21.2664C83.4885 16.2795 77.2123 13.7507 69.498 13.7507C62.6123 13.7507 56.5361 15.8161 51.4218 19.8842C46.7457 23.6067 43.6885 28.3423 41.7933 31.5858C40.8504 33.1957 40.6314 34.6957 40.4695 35.7873V35.8737H35.7552C35.6599 35.0648 36.5457 32.7559 36.8885 31.8449V31.8292C37.0218 31.4915 37.1457 31.1617 37.2695 30.8397C40.4314 22.2716 52.6599 10.2088 69.9742 10.2088ZM69.9742 9.25854C52.079 9.25854 39.4314 21.714 36.1742 30.5648C36.0504 30.8947 35.9266 31.2324 35.7933 31.5701C35.1076 33.3606 34.1742 35.8188 34.8409 36.5648C34.898 36.6277 35.079 36.8318 35.8028 36.8318H41.4409C41.5076 36.6119 41.5647 36.2271 41.6123 35.9051C41.7647 34.8763 41.9742 33.4627 42.8314 32.002C47.1647 24.5805 54.6504 14.7088 69.498 14.7088C86.4695 14.7088 91.8599 27.6041 93.3933 33.1565C93.479 33.447 93.5266 33.8947 93.5933 34.4051C93.6695 35.0177 93.8409 36.3763 94.098 36.8397H100.098C100.717 36.8397 100.869 36.6669 100.927 36.6041C101.603 35.8423 100.584 33.1565 100.089 31.8606C94.3838 16.8685 84.2504 9.2664 69.9837 9.2664L69.9742 9.25854Z" fill="#0C1A81"/>
<path d="M70.5267 20.6069C74.7076 20.6069 78.3267 21.73 81.279 23.9525C84.2981 26.2221 86.7076 29.6933 88.4505 34.2561C88.7362 35.0101 88.8981 35.5205 88.9838 35.8504L84.3933 35.7404C84.3648 35.5441 84.3362 35.3556 84.3267 35.2378C84.279 34.853 84.241 34.5546 84.1743 34.2954L84.041 33.8163C83.4409 31.6017 82.7552 29.0886 80.8219 27.1331C78.5933 24.8635 75.1171 23.764 70.2219 23.764C59.8219 23.764 57.0314 28.5467 54.3362 33.1645L54.1648 33.4472C53.6409 34.3425 53.4409 35.1907 53.3267 35.8582H49.3838C49.4886 35.442 49.6981 34.8451 49.9933 34.0519L50.0124 34.0127C50.0886 33.8085 50.1743 33.6043 50.2409 33.4001C52.2029 28.0834 59.7933 20.5912 70.5267 20.5912V20.6069ZM70.5267 19.641C59.2029 19.641 51.2029 27.5258 49.1362 33.1252C49.06 33.3373 48.9743 33.5572 48.8886 33.7692C48.5457 34.6802 47.8981 36.3687 48.2314 36.7457C48.26 36.7771 48.3838 36.8085 48.5933 36.8085H54.3362C54.3552 36.6985 54.3743 36.565 54.3933 36.4472C54.4981 35.7718 54.6314 34.8373 55.2029 33.8556L55.3743 33.565C58.0314 29.0101 60.5457 24.6985 70.2219 24.6985C80.3743 24.6985 81.7267 29.6462 82.9171 34.0048L83.0505 34.4839C83.1076 34.6881 83.1457 34.9629 83.1838 35.3163C83.2314 35.6619 83.3076 36.3137 83.4219 36.6514L89.8695 36.8006C90.0314 36.8006 90.1171 36.7771 90.1362 36.7535C90.479 36.3687 89.7838 34.5467 89.5552 33.942C85.9362 24.4394 79.5362 19.6252 70.5362 19.6252L70.5267 19.641Z" fill="#0C1A81"/>
<path d="M69.8028 30.6514C73.0695 30.6514 75.3838 32.3635 76.8409 35.8739H61.5171C62.3457 33.6907 65.4409 30.6514 69.8028 30.6514ZM69.8028 29.7012C64.8314 29.7012 61.3076 33.1724 60.4028 35.6383L60.2885 35.9368C60.1933 36.1881 60.0504 36.565 59.9933 36.8242H78.3742C78.3171 36.5572 78.1742 36.1724 78.1171 36.0232C76.5171 31.8294 73.7266 29.7012 69.8123 29.7012H69.8028Z" fill="#0C1A81"/>
<path d="M10.3362 9.5884C13.66 9.5884 16.9172 9.81615 20.0219 10.2638L22.5743 10.6329L19.4124 11.0648C16.441 11.4732 13.3362 11.6774 10.1934 11.6774C6.10765 11.6774 2.03146 11.324 -1.66377 10.6486C2.06956 9.95751 6.19337 9.59626 10.3362 9.59626V9.5884ZM10.3362 8.646C5.68861 8.646 1.05051 9.08579 -3.13044 9.96537L-5.53997 10.468C-5.93997 10.5544 -5.93997 10.7743 -5.53997 10.8607L-2.92092 11.3868C1.1648 12.2114 5.66956 12.6277 10.1838 12.6277C13.3553 12.6277 16.5362 12.4235 19.5934 12.0073L27.9553 10.8685C28.46 10.7978 28.46 10.523 27.9648 10.4523L20.2124 9.3371C17.0124 8.87374 13.66 8.646 10.3267 8.646H10.3362Z" fill="#0C1A81"/>
<path d="M10.3362 17.2141C13.66 17.2141 16.9172 17.4419 20.0219 17.8895L22.5743 18.2586L19.4124 18.6906C16.441 19.099 13.3362 19.3031 10.1934 19.3031C6.10765 19.3031 2.03146 18.9497 -1.66377 18.2743C2.06956 17.5832 6.19337 17.222 10.3362 17.222V17.2141ZM10.3362 16.2717C5.68861 16.2717 1.05051 16.7115 -3.13044 17.5911L-5.53997 18.0937C-5.93997 18.1801 -5.93997 18.4 -5.53997 18.4864L-2.92092 19.0126C1.1648 19.8372 5.66956 20.2534 10.1838 20.2534C13.3553 20.2534 16.5362 20.0492 19.5934 19.633L27.9553 18.4942C28.46 18.4236 28.46 18.1487 27.9648 18.078L20.2124 16.9628C17.0124 16.4995 13.66 16.2717 10.3267 16.2717H10.3362Z" fill="#0C1A81"/>
<path d="M10.3362 24.8396C13.66 24.8396 16.9172 25.0674 20.0219 25.515L22.5743 25.8841L19.4124 26.3161C16.441 26.7244 13.3362 26.9286 10.1934 26.9286C6.10765 26.9286 2.03146 26.5752 -1.66377 25.8998C2.06956 25.2087 6.19337 24.8475 10.3362 24.8475V24.8396ZM10.3362 23.8972C5.68861 23.8972 1.05051 24.337 -3.13044 25.2166L-5.53997 25.7192C-5.93997 25.8056 -5.93997 26.0255 -5.53997 26.1119L-2.92092 26.6381C1.1648 27.4627 5.66956 27.8789 10.1838 27.8789C13.3553 27.8789 16.5362 27.6747 19.5934 27.2585L27.9553 26.1197C28.46 26.049 28.46 25.7742 27.9648 25.7035L20.2124 24.5883C17.0124 24.125 13.66 23.8972 10.3267 23.8972H10.3362Z" fill="#0C1A81"/>
<path d="M10.3362 32.4732C13.66 32.4732 16.9172 32.7009 20.0219 33.1486L22.5743 33.5177L19.4124 33.9496C16.441 34.358 13.3362 34.5622 10.1934 34.5622C6.10765 34.5622 2.03146 34.2088 -1.66377 33.5334C2.06956 32.8423 6.19337 32.481 10.3362 32.481V32.4732ZM10.3362 31.5308C5.68861 31.5308 1.05051 31.9705 -3.13044 32.8501L-5.53997 33.3528C-5.93997 33.4391 -5.93997 33.659 -5.53997 33.7454L-2.92092 34.2716C1.1648 35.0962 5.66956 35.5124 10.1838 35.5124C13.3553 35.5124 16.5362 35.3082 19.5934 34.892L27.9553 33.7533C28.46 33.6826 28.46 33.4077 27.9648 33.337L20.2124 32.2219C17.0124 31.7585 13.66 31.5308 10.3267 31.5308H10.3362Z" fill="#0C1A81"/>
<path d="M53.1647 116.081L64.5076 138.691C64.7933 139.35 65.5171 139.774 66.3743 139.774C67.2314 139.774 67.9933 139.327 68.26 138.651L80.0314 116.332L85.5171 141.848H83.4219L78.06 129.384C77.7743 128.733 77.0505 128.308 76.2124 128.308C75.3647 128.308 74.6314 128.733 74.3552 129.4L69.1266 141.856H62.8409L57.7076 129.62C57.4314 128.96 56.7076 128.528 55.86 128.528C54.9647 128.528 54.2124 129.007 53.9647 129.714L49.8695 141.848H47.2314L53.1647 116.073V116.081ZM53.0409 114.416C52.6981 114.416 52.3647 114.581 52.26 114.911L46.0409 141.95C45.9076 142.374 46.2886 142.79 46.8219 142.79H50.1362C50.4981 142.79 50.8219 142.594 50.9171 142.303L55.0886 129.958C55.1933 129.636 55.5362 129.471 55.8695 129.471C56.1838 129.471 56.5076 129.62 56.6314 129.918L61.8409 142.342C61.9552 142.609 62.26 142.79 62.6028 142.79H69.3743C69.7171 142.79 70.0314 142.609 70.1362 142.342L75.4409 129.699C75.5647 129.4 75.8886 129.251 76.2028 129.251C76.5171 129.251 76.8409 129.4 76.9647 129.699L82.4028 142.35C82.5171 142.617 82.8219 142.798 83.1647 142.798H85.9076C86.4505 142.798 86.8409 142.358 86.679 141.934L80.9267 115.146C80.8124 114.832 80.479 114.675 80.1552 114.675C79.8314 114.675 79.4886 114.84 79.3743 115.162L67.1647 138.314C67.0505 138.644 66.7076 138.816 66.3647 138.816C66.0219 138.816 65.7076 138.659 65.5743 138.345L53.8028 114.879C53.679 114.573 53.3552 114.424 53.0314 114.424L53.0409 114.416Z" fill="#0C1A81"/>
<path d="M14.8314 118.452L15.6505 121.924C17.041 127.806 16.7457 134.332 14.841 139.876C12.8505 134.167 12.5743 127.46 14.0886 121.413L14.8314 118.444V118.452ZM14.8505 114.526C14.7267 114.526 14.6029 114.628 14.5553 114.832L12.9553 121.225C11.3743 127.539 11.7076 134.552 13.8505 140.489L14.5743 142.476C14.6314 142.641 14.7457 142.719 14.8505 142.719C14.9553 142.719 15.0695 142.633 15.1267 142.468L15.8791 140.308C17.8886 134.568 18.2124 127.845 16.7648 121.743L15.1362 114.848C15.0886 114.636 14.9648 114.533 14.841 114.533L14.8505 114.526Z" fill="#0C1A81"/>
<path d="M24.9076 118.452L25.7267 121.924C27.1171 127.806 26.8219 134.332 24.9171 139.876C22.9267 134.167 22.6505 127.46 24.1648 121.413L24.9076 118.444V118.452ZM24.9267 114.526C24.8029 114.526 24.679 114.628 24.6314 114.832L23.0314 121.225C21.4505 127.539 21.7838 134.552 23.9267 140.489L24.6505 142.476C24.7076 142.641 24.8219 142.719 24.9267 142.719C25.0314 142.719 25.1457 142.633 25.2029 142.468L25.9552 140.308C27.9648 134.568 28.2886 127.845 26.841 121.743L25.2124 114.848C25.1648 114.636 25.041 114.533 24.9171 114.533L24.9267 114.526Z" fill="#0C1A81"/>
<path d="M34.9743 118.452L35.7933 121.924C37.1838 127.806 36.8886 134.332 34.9838 139.876C32.9933 134.167 32.7171 127.46 34.2314 121.413L34.9743 118.444V118.452ZM34.9933 114.526C34.8695 114.526 34.7457 114.628 34.6981 114.832L33.0981 121.225C31.5171 127.539 31.8505 134.552 33.9933 140.489L34.7171 142.476C34.7743 142.641 34.8886 142.719 34.9933 142.719C35.0981 142.719 35.2124 142.633 35.2695 142.468L36.0219 140.308C38.0314 134.568 38.3552 127.845 36.9076 121.743L35.279 114.848C35.2314 114.636 35.1076 114.533 34.9838 114.533L34.9933 114.526Z" fill="#0C1A81"/>
<path d="M109.46 115.625C112.784 115.625 116.041 115.853 119.146 116.301L121.698 116.67L118.536 117.102C115.565 117.51 112.46 117.714 109.317 117.714C105.231 117.714 101.155 117.361 97.46 116.685C101.193 115.994 105.317 115.633 109.46 115.633V115.625ZM109.46 114.683C104.812 114.683 100.174 115.123 95.9933 116.002L93.5838 116.505C93.1838 116.591 93.1838 116.811 93.5838 116.898L96.2029 117.424C100.289 118.248 104.793 118.665 109.308 118.665C112.479 118.665 115.66 118.46 118.717 118.044L127.079 116.905C127.584 116.835 127.584 116.56 127.089 116.489L119.336 115.374C116.136 114.911 112.784 114.683 109.45 114.683H109.46Z" fill="#0C1A81"/>
<path d="M109.46 123.251C112.784 123.251 116.041 123.479 119.146 123.926L121.698 124.295L118.536 124.727C115.565 125.136 112.46 125.34 109.317 125.34C105.231 125.34 101.155 124.986 97.46 124.311C101.193 123.62 105.317 123.259 109.46 123.259V123.251ZM109.46 122.308C104.812 122.308 100.174 122.748 95.9933 123.628L93.5838 124.13C93.1838 124.217 93.1838 124.437 93.5838 124.523L96.2029 125.049C100.289 125.874 104.793 126.29 109.308 126.29C112.479 126.29 115.66 126.086 118.717 125.67L127.079 124.531C127.584 124.46 127.584 124.185 127.089 124.115L119.336 122.999C116.136 122.536 112.784 122.308 109.45 122.308H109.46Z" fill="#0C1A81"/>
<path d="M109.46 130.877C112.784 130.877 116.041 131.104 119.146 131.552L121.698 131.921L118.536 132.353C115.565 132.761 112.46 132.965 109.317 132.965C105.231 132.965 101.155 132.612 97.46 131.937C101.193 131.246 105.317 130.884 109.46 130.884V130.877ZM109.46 129.934C104.812 129.934 100.174 130.374 95.9933 131.253L93.5838 131.756C93.1838 131.842 93.1838 132.062 93.5838 132.149L96.2029 132.675C100.289 133.5 104.793 133.916 109.308 133.916C112.479 133.916 115.66 133.712 118.717 133.295L127.079 132.157C127.584 132.086 127.584 131.811 127.089 131.74L119.336 130.625C116.136 130.162 112.784 129.934 109.45 129.934H109.46Z" fill="#0C1A81"/>
<path d="M109.46 138.51C112.784 138.51 116.041 138.738 119.146 139.185L121.698 139.555L118.536 139.986C115.565 140.395 112.46 140.599 109.317 140.599C105.231 140.599 101.155 140.246 97.46 139.57C101.193 138.879 105.317 138.518 109.46 138.518V138.51ZM109.46 137.568C104.812 137.568 100.174 138.007 95.9933 138.887L93.5838 139.39C93.1838 139.476 93.1838 139.696 93.5838 139.782L96.2029 140.308C100.289 141.133 104.793 141.549 109.308 141.549C112.479 141.549 115.66 141.345 118.717 140.929L127.079 139.79C127.584 139.719 127.584 139.445 127.089 139.374L119.336 138.259C116.136 137.795 112.784 137.568 109.45 137.568H109.46Z" fill="#0C1A81"/>
<path d="M72.4886 115.617C72.4886 115.617 72.5267 115.617 72.5457 115.641C72.5648 115.657 72.5648 115.672 72.5648 115.68L66.9838 128.67V128.693L66.9648 128.717C66.9648 128.717 66.9457 128.756 66.8981 128.756C66.8505 128.756 66.841 128.74 66.8314 128.709V128.677L66.8029 128.646L61.2219 115.68C61.2219 115.68 61.2219 115.657 61.241 115.649C61.26 115.625 61.2886 115.625 61.2981 115.625H72.4981L72.4886 115.617ZM72.4981 114.667H61.2886C60.4791 114.667 59.8981 115.303 60.1076 115.947L65.7172 128.968C65.8791 129.463 66.3934 129.714 66.8981 129.714C67.4029 129.714 67.8981 129.471 68.0695 128.992L73.6695 115.963C73.8981 115.319 73.3076 114.675 72.4981 114.675V114.667Z" fill="#0C1A81"/>
<path d="M56.3552 138.322L58.0029 141.856H54.5743L56.3552 138.322ZM56.3838 136.303C56.241 136.303 56.0886 136.366 56.0314 136.5L53.079 142.358C52.9743 142.57 53.1648 142.798 53.4314 142.798H59.1171C59.3838 142.798 59.5743 142.57 59.479 142.366L56.7457 136.507C56.679 136.374 56.5362 136.303 56.3838 136.303Z" fill="#0C1A81"/>
<path d="M76.4695 138.322L78.1171 141.856H74.6885L76.4695 138.322ZM76.4981 136.303C76.3552 136.303 76.2028 136.366 76.1457 136.5L73.1933 142.358C73.0885 142.57 73.279 142.798 73.5457 142.798H79.2314C79.4981 142.798 79.6885 142.57 79.5933 142.366L76.86 136.507C76.7933 136.374 76.6504 136.303 76.4981 136.303Z" fill="#0C1A81"/>
<path d="M46.2119 114.985L44.0374 122.865L45.6068 123.159L47.7813 115.28L46.2119 114.985Z" fill="#0C1A81"/>
<path d="M86.7686 114.987L85.1786 115.193L86.7015 123.176L88.2915 122.97L86.7686 114.987Z" fill="#0C1A81"/>
<path d="M113.955 83.1042L114.774 86.5754C116.165 92.4576 115.87 98.9838 113.965 104.528C111.974 98.8189 111.698 92.112 113.212 86.0649L113.955 83.0963V83.1042ZM113.974 79.1775C113.85 79.1775 113.727 79.2796 113.679 79.4838L112.079 85.8764C110.498 92.1906 110.831 99.2037 112.974 105.141L113.698 107.128C113.755 107.293 113.87 107.371 113.974 107.371C114.079 107.371 114.193 107.285 114.25 107.12L115.003 104.96C117.012 99.2194 117.336 92.4969 115.889 86.3948L114.26 79.4995C114.212 79.2874 114.089 79.1853 113.965 79.1853L113.974 79.1775Z" fill="#0C1A81"/>
<path d="M124.031 83.1042L124.85 86.5754C126.241 92.4576 125.946 98.9838 124.041 104.528C122.05 98.8189 121.774 92.112 123.289 86.0649L124.031 83.0963V83.1042ZM124.05 79.1775C123.927 79.1775 123.803 79.2796 123.755 79.4838L122.155 85.8764C120.574 92.1906 120.908 99.2037 123.05 105.141L123.774 107.128C123.831 107.293 123.946 107.371 124.05 107.371C124.155 107.371 124.269 107.285 124.327 107.12L125.079 104.96C127.089 99.2194 127.412 92.4969 125.965 86.3948L124.336 79.4995C124.289 79.2874 124.165 79.1853 124.041 79.1853L124.05 79.1775Z" fill="#0C1A81"/>
<path d="M101.641 80.2221L101.736 89.8346L90.9171 80.2692L101.641 80.2221ZM102.431 79.2561C102.431 79.2561 102.365 79.2561 102.327 79.2718L88.9647 79.3346C88.7457 79.3896 88.6409 79.6017 88.7648 79.7666L102.25 91.688C102.327 91.7823 102.431 91.8294 102.546 91.8294C102.727 91.8294 102.908 91.7195 102.908 91.5388L102.784 79.5624C102.784 79.3975 102.622 79.2718 102.431 79.2718V79.2561Z" fill="#0C1A81"/>
<path d="M47.4885 80.2849L35.4219 89.5676L35.3647 80.3712L47.4885 80.2849ZM49.5171 79.3189L34.5552 79.421C34.3076 79.421 34.1362 79.6173 34.2124 79.8058L34.2885 91.154C34.3362 91.2875 34.4885 91.366 34.6409 91.366C34.7076 91.366 34.7743 91.3503 34.8314 91.3189L49.7171 79.8686C50.0314 79.7116 49.8885 79.311 49.5266 79.311L49.5171 79.3189Z" fill="#0C1A81"/>
<path d="M69.9742 80.8973C76.7838 80.8973 82.6695 82.7271 87.4695 86.324C92.3361 89.9758 96.2123 95.5282 98.9933 102.824C99.2123 103.413 99.5552 104.3 99.7742 105.133C99.9837 105.918 100.012 106.35 99.9933 106.57H94.9742C94.9076 106.248 94.8218 105.753 94.7266 104.992C94.6599 104.45 94.6028 103.978 94.5076 103.625C93.6409 100.484 91.8314 95.9051 88.1457 91.9549C83.4885 86.968 77.2123 84.4392 69.498 84.4392C62.6123 84.4392 56.5361 86.5046 51.4218 90.5727C46.7457 94.2952 43.6885 99.0308 41.7933 102.274C40.8504 103.884 40.6314 105.384 40.4695 106.476V106.562H35.7552C35.6599 105.753 36.5457 103.444 36.8885 102.533V102.518C37.0218 102.18 37.1457 101.85 37.2695 101.528C40.4314 92.9601 52.6599 80.8973 69.9742 80.8973ZM69.9742 79.947C52.079 79.947 39.4314 92.4025 36.1742 101.253C36.0504 101.583 35.9266 101.921 35.7933 102.259C35.1076 104.049 34.1742 106.507 34.8409 107.253C34.898 107.316 35.079 107.52 35.8028 107.52H41.4409C41.5076 107.3 41.5647 106.916 41.6123 106.594C41.7647 105.565 41.9742 104.151 42.8314 102.69C47.1647 95.269 54.6504 85.3973 69.498 85.3973C86.4695 85.3973 91.8599 98.2926 93.3933 103.845C93.479 104.136 93.5266 104.583 93.5933 105.094C93.6695 105.706 93.8409 107.065 94.098 107.528H100.098C100.717 107.528 100.869 107.355 100.927 107.293C101.603 106.531 100.584 103.845 100.089 102.549C94.3838 87.557 84.2504 79.9549 69.9837 79.9549L69.9742 79.947Z" fill="#0C1A81"/>
<path d="M70.5267 91.2954C74.7076 91.2954 78.3267 92.4184 81.279 94.6409C84.2981 96.9106 86.7076 100.382 88.4505 104.945C88.7362 105.699 88.8981 106.209 88.9838 106.539L84.3933 106.429C84.3648 106.233 84.3362 106.044 84.3267 105.926C84.279 105.541 84.241 105.243 84.1743 104.984L84.041 104.505C83.4409 102.29 82.7552 99.7771 80.8219 97.8216C78.5933 95.5519 75.1171 94.4525 70.2219 94.4525C59.8219 94.4525 57.0314 99.2352 54.3362 103.853L54.1648 104.136C53.6409 105.031 53.4409 105.879 53.3267 106.547H49.3838C49.4886 106.13 49.6981 105.534 49.9933 104.74L50.0124 104.701C50.0886 104.497 50.1743 104.293 50.2409 104.089C52.2029 98.7718 59.7933 91.2797 70.5267 91.2797V91.2954ZM70.5267 90.3294C59.2029 90.3294 51.2029 98.2142 49.1362 103.814C49.06 104.026 48.9743 104.246 48.8886 104.458C48.5457 105.369 47.8981 107.057 48.2314 107.434C48.26 107.466 48.3838 107.497 48.5933 107.497H54.3362C54.3552 107.387 54.3743 107.254 54.3933 107.136C54.4981 106.46 54.6314 105.526 55.2029 104.544L55.3743 104.254C58.0314 99.6985 60.5457 95.387 70.2219 95.387C80.3743 95.387 81.7267 100.335 82.9171 104.693L83.0505 105.172C83.1076 105.377 83.1457 105.651 83.1838 106.005C83.2314 106.35 83.3076 107.002 83.4219 107.34L89.8695 107.489C90.0314 107.489 90.1171 107.466 90.1362 107.442C90.479 107.057 89.7838 105.235 89.5552 104.63C85.9362 95.1279 79.5362 90.3137 70.5362 90.3137L70.5267 90.3294Z" fill="#0C1A81"/>
<path d="M69.8028 101.34C73.0695 101.34 75.3838 103.052 76.8409 106.562H61.5171C62.3457 104.379 65.4409 101.34 69.8028 101.34ZM69.8028 100.39C64.8314 100.39 61.3076 103.861 60.4028 106.327L60.2885 106.625C60.1933 106.877 60.0504 107.254 59.9933 107.513H78.3742C78.3171 107.246 78.1742 106.861 78.1171 106.712C76.5171 102.518 73.7266 100.39 69.8123 100.39H69.8028Z" fill="#0C1A81"/>
<path d="M10.3362 80.2771C13.66 80.2771 16.9172 80.5049 20.0219 80.9525L22.5743 81.3216L19.4124 81.7536C16.441 82.1619 13.3362 82.3661 10.1934 82.3661C6.10765 82.3661 2.03146 82.0127 -1.66377 81.3373C2.06956 80.6462 6.19337 80.285 10.3362 80.285V80.2771ZM10.3362 79.3347C5.68861 79.3347 1.05051 79.7745 -3.13044 80.6541L-5.53997 81.1567C-5.93997 81.2431 -5.93997 81.463 -5.53997 81.5494L-2.92092 82.0756C1.1648 82.9002 5.66956 83.3164 10.1838 83.3164C13.3553 83.3164 16.5362 83.1122 19.5934 82.696L27.9553 81.5572C28.46 81.4866 28.46 81.2117 27.9648 81.141L20.2124 80.0258C17.0124 79.5625 13.66 79.3347 10.3267 79.3347H10.3362Z" fill="#0C1A81"/>
<path d="M10.3362 87.9029C13.66 87.9029 16.9172 88.1306 20.0219 88.5782L22.5743 88.9474L19.4124 89.3793C16.441 89.7877 13.3362 89.9919 10.1934 89.9919C6.10765 89.9919 2.03146 89.6385 -1.66377 88.9631C2.06956 88.272 6.19337 87.9107 10.3362 87.9107V87.9029ZM10.3362 86.9604C5.68861 86.9604 1.05051 87.4002 -3.13044 88.2798L-5.53997 88.7824C-5.93997 88.8688 -5.93997 89.0887 -5.53997 89.1751L-2.92092 89.7013C1.1648 90.5259 5.66956 90.9421 10.1838 90.9421C13.3553 90.9421 16.5362 90.7379 19.5934 90.3217L27.9553 89.183C28.46 89.1123 28.46 88.8374 27.9648 88.7667L20.2124 87.6515C17.0124 87.1882 13.66 86.9604 10.3267 86.9604H10.3362Z" fill="#0C1A81"/>
<path d="M10.3362 95.5364C13.66 95.5364 16.9172 95.7641 20.0219 96.2118L22.5743 96.5809L19.4124 97.0128C16.441 97.4212 13.3362 97.6254 10.1934 97.6254C6.10765 97.6254 2.03146 97.272 -1.66377 96.5966C2.06956 95.9055 6.19337 95.5443 10.3362 95.5443V95.5364ZM10.3362 94.594C5.68861 94.594 1.05051 95.0338 -3.13044 95.9134L-5.53997 96.416C-5.93997 96.5024 -5.93997 96.7223 -5.53997 96.8087L-2.92092 97.3348C1.1648 98.1594 5.66956 98.5757 10.1838 98.5757C13.3553 98.5757 16.5362 98.3715 19.5934 97.9553L27.9553 96.8165C28.46 96.7458 28.46 96.471 27.9648 96.4003L20.2124 95.2851C17.0124 94.8217 13.66 94.594 10.3267 94.594H10.3362Z" fill="#0C1A81"/>
<path d="M10.3362 103.162C13.66 103.162 16.9172 103.39 20.0219 103.837L22.5743 104.206L19.4124 104.638C16.441 105.047 13.3362 105.251 10.1934 105.251C6.10765 105.251 2.03146 104.897 -1.66377 104.222C2.06956 103.531 6.19337 103.17 10.3362 103.17V103.162ZM10.3362 102.219C5.68861 102.219 1.05051 102.659 -3.13044 103.539L-5.53997 104.041C-5.93997 104.128 -5.93997 104.348 -5.53997 104.434L-2.92092 104.96C1.1648 105.785 5.66956 106.201 10.1838 106.201C13.3553 106.201 16.5362 105.997 19.5934 105.581L27.9553 104.442C28.46 104.371 28.46 104.096 27.9648 104.026L20.2124 102.911C17.0124 102.447 13.66 102.219 10.3267 102.219H10.3362Z" fill="#0C1A81"/>
<path d="M53.1647 45.3844L64.5076 67.9944C64.7933 68.654 65.5171 69.0781 66.3743 69.0781C67.2314 69.0781 67.9933 68.6305 68.26 67.9551L80.0314 45.6357L85.5171 71.1514H83.4219L78.06 58.6881C77.7743 58.0362 77.0505 57.6122 76.2124 57.6122C75.3647 57.6122 74.6314 58.0362 74.3552 58.7038L69.1266 71.1593H62.8409L57.7076 58.9237C57.4314 58.264 56.7076 57.8321 55.86 57.8321C54.9647 57.8321 54.2124 58.3111 53.9647 59.0179L49.8695 71.1514H47.2314L53.1647 45.3766V45.3844ZM53.0409 43.7195C52.6981 43.7195 52.3647 43.8844 52.26 44.2142L46.0409 71.2535C45.9076 71.6776 46.2886 72.0938 46.8219 72.0938H50.1362C50.4981 72.0938 50.8219 71.8975 50.9171 71.6069L55.0886 59.2614C55.1933 58.9394 55.5362 58.7745 55.8695 58.7745C56.1838 58.7745 56.5076 58.9237 56.6314 59.2221L61.8409 71.6462C61.9552 71.9132 62.26 72.0938 62.6028 72.0938H69.3743C69.7171 72.0938 70.0314 71.9132 70.1362 71.6462L75.4409 59.0022C75.5647 58.7038 75.8886 58.5546 76.2028 58.5546C76.5171 58.5546 76.8409 58.7038 76.9647 59.0022L82.4028 71.654C82.5171 71.9211 82.8219 72.1017 83.1647 72.1017H85.9076C86.4505 72.1017 86.8409 71.6619 86.679 71.2378L80.9267 44.4498C80.8124 44.1357 80.479 43.9786 80.1552 43.9786C79.8314 43.9786 79.4886 44.1436 79.3743 44.4656L67.1647 67.6174C67.0505 67.9472 66.7076 68.12 66.3647 68.12C66.0219 68.12 65.7076 67.9629 65.5743 67.6488L53.8028 44.1828C53.679 43.8766 53.3552 43.7273 53.0314 43.7273L53.0409 43.7195Z" fill="#0C1A81"/>
<path d="M14.8314 47.756L15.6505 51.2273C17.041 57.1095 16.7457 63.6356 14.841 69.1801C12.8505 63.4707 12.5743 56.7639 14.0886 50.7168L14.8314 47.7482V47.756ZM14.8505 43.8293C14.7267 43.8293 14.6029 43.9314 14.5553 44.1356L12.9553 50.5283C11.3743 56.8424 11.7076 63.8555 13.8505 69.7927L14.5743 71.7796C14.6314 71.9445 14.7457 72.0231 14.8505 72.0231C14.9553 72.0231 15.0695 71.9367 15.1267 71.7718L15.8791 69.6121C17.8886 63.8712 18.2124 57.1487 16.7648 51.0466L15.1362 44.1513C15.0886 43.9393 14.9648 43.8372 14.841 43.8372L14.8505 43.8293Z" fill="#0C1A81"/>
<path d="M24.9076 47.756L25.7267 51.2273C27.1171 57.1095 26.8219 63.6356 24.9171 69.1801C22.9267 63.4707 22.6505 56.7639 24.1648 50.7168L24.9076 47.7482V47.756ZM24.9267 43.8293C24.8029 43.8293 24.679 43.9314 24.6314 44.1356L23.0314 50.5283C21.4505 56.8424 21.7838 63.8555 23.9267 69.7927L24.6505 71.7796C24.7076 71.9445 24.8219 72.0231 24.9267 72.0231C25.0314 72.0231 25.1457 71.9367 25.2029 71.7718L25.9552 69.6121C27.9648 63.8712 28.2886 57.1487 26.841 51.0466L25.2124 44.1513C25.1648 43.9393 25.041 43.8372 24.9171 43.8372L24.9267 43.8293Z" fill="#0C1A81"/>
<path d="M34.9743 47.756L35.7933 51.2273C37.1838 57.1095 36.8886 63.6356 34.9838 69.1801C32.9933 63.4707 32.7171 56.7639 34.2314 50.7168L34.9743 47.7482V47.756ZM34.9933 43.8293C34.8695 43.8293 34.7457 43.9314 34.6981 44.1356L33.0981 50.5283C31.5171 56.8424 31.8505 63.8555 33.9933 69.7927L34.7171 71.7796C34.7743 71.9445 34.8886 72.0231 34.9933 72.0231C35.0981 72.0231 35.2124 71.9367 35.2695 71.7718L36.0219 69.6121C38.0314 63.8712 38.3552 57.1487 36.9076 51.0466L35.279 44.1513C35.2314 43.9393 35.1076 43.8372 34.9838 43.8372L34.9933 43.8293Z" fill="#0C1A81"/>
<path d="M109.46 60.188C112.784 60.188 116.041 60.4158 119.146 60.8634L121.698 61.2325L118.536 61.6645C115.565 62.0728 112.46 62.277 109.317 62.277C105.231 62.277 101.155 61.9236 97.46 61.2482C101.193 60.5571 105.317 60.1959 109.46 60.1959V60.188ZM109.46 59.2456C104.812 59.2456 100.174 59.6854 95.9933 60.565L93.5838 61.0676C93.1838 61.154 93.1838 61.3739 93.5838 61.4603L96.2029 61.9864C100.289 62.811 104.793 63.2273 109.308 63.2273C112.479 63.2273 115.66 63.0231 118.717 62.6069L127.079 61.4681C127.584 61.3974 127.584 61.1226 127.089 61.0519L119.336 59.9367C116.136 59.4734 112.784 59.2456 109.45 59.2456H109.46Z" fill="#0C1A81"/>
<path d="M109.46 67.8137C112.784 67.8137 116.041 68.0415 119.146 68.4891L121.698 68.8582L118.536 69.2902C115.565 69.6986 112.46 69.9028 109.317 69.9028C105.231 69.9028 101.155 69.5494 97.46 68.874C101.193 68.1829 105.317 67.8216 109.46 67.8216V67.8137ZM109.46 66.8713C104.812 66.8713 100.174 67.3111 95.9933 68.1907L93.5838 68.6933C93.1838 68.7797 93.1838 68.9996 93.5838 69.086L96.2029 69.6122C100.289 70.4368 104.793 70.853 109.308 70.853C112.479 70.853 115.66 70.6488 118.717 70.2326L127.079 69.0939C127.584 69.0232 127.584 68.7483 127.089 68.6776L119.336 67.5624C116.136 67.0991 112.784 66.8713 109.45 66.8713H109.46Z" fill="#0C1A81"/>
<path d="M72.4886 44.929C72.4886 44.929 72.5267 44.929 72.5457 44.9526C72.5648 44.9683 72.5648 44.984 72.5648 44.9918L66.9838 57.9814V58.0049L66.9648 58.0285C66.9648 58.0285 66.9457 58.0678 66.8981 58.0678C66.8505 58.0678 66.841 58.0521 66.8314 58.0206V57.9892L66.8029 57.9578L61.2219 44.9918C61.2219 44.9918 61.2219 44.9683 61.241 44.9604C61.26 44.9369 61.2886 44.9369 61.2981 44.9369H72.4981L72.4886 44.929ZM72.4981 43.9788H61.2886C60.4791 43.9788 59.8981 44.6149 60.1076 45.2589L65.7172 58.2798C65.8791 58.7746 66.3934 59.0259 66.8981 59.0259C67.4029 59.0259 67.8981 58.7824 68.0695 58.3034L73.6695 45.2746C73.8981 44.6306 73.3076 43.9866 72.4981 43.9866V43.9788Z" fill="#0C1A81"/>
<path d="M56.3552 67.6253L58.0029 71.1593H54.5743L56.3552 67.6253ZM56.3838 65.6069C56.241 65.6069 56.0886 65.6698 56.0314 65.8033L53.079 71.6619C52.9743 71.8739 53.1648 72.1017 53.4314 72.1017H59.1171C59.3838 72.1017 59.5743 71.874 59.479 71.6698L56.7457 65.8111C56.679 65.6776 56.5362 65.6069 56.3838 65.6069Z" fill="#0C1A81"/>
<path d="M76.4695 67.6253L78.1171 71.1593H74.6885L76.4695 67.6253ZM76.4981 65.6069C76.3552 65.6069 76.2028 65.6698 76.1457 65.8033L73.1933 71.6619C73.0885 71.8739 73.279 72.1017 73.5457 72.1017H79.2314C79.4981 72.1017 79.6885 71.874 79.5933 71.6698L76.86 65.8111C76.7933 65.6776 76.6504 65.6069 76.4981 65.6069Z" fill="#0C1A81"/>
</g>
<defs>
<clipPath id="clip0_7677_24337">
<rect width="266.667" height="141.361" fill="white" transform="translate(6.66003 4.83716)"/>
</clipPath>
</defs>
</svg>
