<svg xmlns="http://www.w3.org/2000/svg" width="16" height="16" viewBox="0 0 16 16" fill="none">
<g clip-path="url(#clip0_11840_26649)">
<path d="M6.66406 8.66794C6.95036 9.0507 7.31563 9.3674 7.7351 9.59657C8.15456 9.82574 8.6184 9.96202 9.09516 9.99617C9.57192 10.0303 10.0505 9.96152 10.4983 9.79447C10.9461 9.62741 11.3528 9.36599 11.6907 9.02794L13.6907 7.02794C14.2979 6.39927 14.6339 5.55726 14.6263 4.68327C14.6187 3.80929 14.2682 2.97324 13.6501 2.35522C13.0321 1.73719 12.1961 1.38663 11.3221 1.37903C10.4481 1.37144 9.60607 1.70742 8.9774 2.31461L7.83073 3.45461" stroke="#0C1A81" stroke-width="2" stroke-linecap="round" stroke-linejoin="round"/>
<path d="M9.32956 7.33283C9.04326 6.95008 8.67799 6.63338 8.25853 6.40421C7.83906 6.17503 7.37522 6.03875 6.89846 6.00461C6.4217 5.97047 5.94317 6.03925 5.49533 6.20631C5.04749 6.37337 4.64082 6.63479 4.30289 6.97283L2.30289 8.97283C1.6957 9.60151 1.35972 10.4435 1.36731 11.3175C1.37491 12.1915 1.72547 13.0275 2.3435 13.6456C2.96153 14.2636 3.79757 14.6142 4.67156 14.6217C5.54555 14.6293 6.38755 14.2934 7.01623 13.6862L8.15623 12.5462" stroke="#0C1A81" stroke-width="2" stroke-linecap="round" stroke-linejoin="round"/>
</g>
<defs>
<clipPath id="clip0_11840_26649">
<rect width="16" height="16" fill="white"/>
</clipPath>
</defs>
</svg>