<svg width="316" height="316" viewBox="0 0 316 316" fill="none" xmlns="http://www.w3.org/2000/svg">
<path d="M302.864 157.965C302.864 154.863 300.75 152.326 297.86 151.621C297.649 146.053 297.014 140.556 296.168 135.058C298.847 133.789 300.327 130.829 299.693 127.869C299.058 124.908 296.45 122.794 293.561 122.723C292.151 117.296 290.459 112.01 288.415 106.865C290.741 105.103 291.587 101.861 290.318 99.1117C289.261 96.7153 286.865 95.2352 284.398 95.2352C284.045 95.2352 283.623 95.2352 283.27 95.3057C280.803 90.3719 277.984 85.5791 274.953 80.9272C276.856 78.6718 277.068 75.3591 275.235 72.8922C273.966 71.1301 271.993 70.2139 269.949 70.2139C269.103 70.2139 268.257 70.3548 267.482 70.7072C264.24 66.6897 260.786 62.8132 257.051 59.0776C256.839 58.8662 256.557 58.5842 256.346 58.3728C257.755 55.7649 257.262 52.4523 255.007 50.4083C253.738 49.2805 252.187 48.7167 250.637 48.7167C249.368 48.7167 248.029 49.0691 246.972 49.8444C242.672 46.3203 238.161 43.0076 233.509 40.0473C234.355 37.228 233.157 34.1268 230.549 32.5762C229.492 32.0123 228.435 31.7304 227.307 31.7304C225.545 31.7304 223.853 32.4352 222.585 33.7039C217.651 31.1665 212.576 28.9111 207.36 26.9375C207.572 24.0478 205.81 21.2285 202.85 20.3122C202.145 20.1007 201.51 19.9598 200.876 19.9598C198.621 19.9598 196.577 21.0875 195.378 23.061C190.022 21.5809 184.594 20.4531 179.097 19.6074C178.674 16.7176 176.348 14.3212 173.317 13.9688C173.106 13.9688 172.824 13.9688 172.612 13.9688C169.864 13.9688 167.397 15.7308 166.48 18.3387C163.732 18.1977 160.983 18.0567 158.164 18.0567C155.344 18.0567 152.595 18.1272 149.847 18.3387C148.93 15.8013 146.463 13.9688 143.715 13.9688C143.503 13.9688 143.221 13.9688 143.01 13.9688C139.979 14.3212 137.653 16.6471 137.23 19.6074C131.733 20.4531 126.305 21.5809 120.949 23.061C119.75 21.158 117.636 19.9598 115.451 19.9598C114.817 19.9598 114.112 20.1007 113.478 20.3122C110.588 21.2285 108.826 24.0478 108.967 26.9375C103.751 28.9111 98.6762 31.1665 93.7424 33.7039C92.4737 32.4352 90.7821 31.7304 89.0201 31.7304C87.8924 31.7304 86.8351 32.0123 85.7779 32.5762C83.0995 34.1268 81.9718 37.228 82.8176 40.0473C78.1658 43.0076 73.6549 46.3203 69.3554 49.8444C68.2277 49.0691 66.959 48.7167 65.6903 48.7167C64.1397 48.7167 62.5891 49.2805 61.3204 50.4083C59.1355 52.5932 58.6421 55.8354 60.0517 58.4433C59.8403 58.6547 59.5583 58.8662 59.3469 59.1481C55.6113 62.8837 52.1577 66.7602 48.9155 70.7777C48.1402 70.4253 47.2944 70.2844 46.4486 70.2844C44.4751 70.2844 42.4311 71.2006 41.1624 72.9627C39.3298 75.4296 39.5413 78.7423 41.4443 80.9977C38.3431 85.6496 35.5943 90.4424 33.1274 95.3762C32.775 95.3057 32.3521 95.3057 31.9996 95.3057C29.5328 95.3057 27.1363 96.7153 26.0791 99.1822C24.8104 101.931 25.7267 105.173 27.9821 106.935C25.9381 112.081 24.2466 117.367 22.8369 122.794C19.8766 122.864 17.3393 124.979 16.7049 127.939C16.0706 130.899 17.6212 133.86 20.2291 135.128C19.3128 140.556 18.7489 146.053 18.5375 151.692C15.6477 152.397 13.5332 154.934 13.5332 158.035C13.5332 161.136 15.6477 163.674 18.5375 164.379C18.7489 169.947 19.3833 175.444 20.2291 180.942C17.5507 182.211 16.0706 185.171 16.7049 188.131C17.3393 191.092 19.9471 193.206 22.8369 193.276C24.2466 198.633 25.9381 203.919 27.9821 209.135C25.6562 210.897 24.8104 214.139 26.0791 216.888C27.1363 219.285 29.5328 220.765 31.9996 220.765C32.3521 220.765 32.775 220.765 33.1274 220.694C35.5943 225.628 38.4136 230.491 41.4443 235.073C39.5413 237.328 39.3298 240.641 41.1624 243.108C42.4311 244.87 44.4046 245.786 46.4486 245.786C47.2944 245.786 48.1402 245.645 48.9155 245.293C52.1577 249.31 55.6113 253.187 59.3469 256.922C59.5583 257.134 59.8403 257.416 60.0517 257.627C58.6421 260.235 59.1355 263.548 61.3909 265.592C62.6596 266.719 64.2102 267.283 65.7608 267.283C67.0295 267.283 68.3687 266.931 69.4259 266.156C73.7254 269.68 78.2362 272.992 82.8881 275.953C82.0423 278.772 83.2405 281.873 85.8484 283.424C86.9056 283.988 87.9628 284.27 89.0906 284.27C90.8526 284.27 92.5442 283.565 93.8129 282.296C98.7467 284.833 103.821 287.089 109.037 289.062C108.826 291.952 110.588 294.771 113.548 295.688C114.253 295.899 114.887 296.04 115.522 296.04C117.777 296.04 119.821 294.912 121.019 293.009C126.376 294.49 131.803 295.617 137.301 296.463C137.724 299.353 140.049 301.749 143.08 302.102C143.292 302.102 143.574 302.102 143.785 302.102C146.534 302.102 149.001 300.34 149.917 297.732C152.666 297.873 155.415 298.014 158.234 298.014C161.053 298.014 163.802 297.943 166.551 297.732C167.467 300.269 169.934 302.102 172.683 302.102C172.894 302.102 173.176 302.102 173.388 302.102C176.419 301.749 178.744 299.423 179.167 296.463C184.665 295.617 190.092 294.49 195.449 293.009C196.647 294.912 198.762 296.04 200.946 296.04C201.581 296.04 202.286 295.899 202.92 295.688C205.81 294.771 207.572 291.952 207.431 289.062C212.647 287.089 217.721 284.833 222.655 282.296C223.924 283.565 225.615 284.27 227.377 284.27C228.505 284.27 229.562 283.988 230.62 283.424C233.298 281.873 234.426 278.772 233.58 275.953C238.232 272.992 242.743 269.68 247.042 266.156C248.17 266.931 249.439 267.283 250.707 267.283C252.258 267.283 253.808 266.719 255.077 265.592C257.333 263.548 257.826 260.235 256.416 257.627C256.628 257.416 256.91 257.134 257.121 256.922C260.857 253.187 264.31 249.31 267.553 245.293C268.328 245.645 269.174 245.786 270.019 245.786C271.993 245.786 274.037 244.87 275.306 243.108C277.138 240.641 276.927 237.328 275.024 235.073C278.125 230.421 280.874 225.628 283.341 220.694C283.693 220.765 284.116 220.765 284.468 220.765C286.935 220.765 289.332 219.355 290.389 216.888C291.658 214.069 290.741 210.897 288.486 209.135C290.53 203.99 292.221 198.704 293.631 193.276C296.591 193.206 299.129 191.092 299.763 188.131C300.397 185.171 298.847 182.211 296.239 180.942C297.155 175.515 297.719 170.017 297.931 164.379C300.75 163.603 302.864 161.066 302.864 157.965ZM284.398 108.345C285.032 108.345 285.737 108.274 286.371 107.993C288.274 112.926 289.896 117.931 291.235 123.076C288.627 123.922 286.865 126.389 286.794 129.067L247.183 137.525C246.69 137.243 246.126 137.102 245.28 137.102H244.998C244.857 137.102 244.716 137.102 244.505 137.102C243.729 137.102 242.954 137.031 242.108 136.961C241.263 136.89 240.346 136.82 239.43 136.82C237.879 136.82 235.624 137.031 233.439 138.652C232.311 137.454 230.831 136.89 228.999 136.89C228.505 136.89 228.012 136.89 227.448 137.031C228.012 133.648 226.25 131.745 224.276 130.336L279.182 105.878C280.521 107.429 282.424 108.345 284.398 108.345ZM269.949 83.3236C271.077 83.3236 272.134 83.0417 273.121 82.4778C276.081 86.9182 278.689 91.4996 281.085 96.222C278.689 97.6316 277.491 100.31 277.913 102.988L221.527 128.08C221.386 127.939 221.245 127.798 221.104 127.728C220.541 127.164 219.977 126.67 219.413 126.107C218.074 124.908 217.157 123.358 216.171 121.666C215.677 120.75 215.113 119.834 214.55 118.988L265.65 81.8435C266.918 82.7598 268.469 83.3236 269.949 83.3236ZM247.535 61.0511C248.522 61.5445 249.509 61.8264 250.566 61.8264C252.117 61.8264 253.597 61.2626 254.866 60.2053C255.007 60.3463 255.218 60.5578 255.43 60.6987C259.024 64.2933 262.407 68.0289 265.509 71.9759C263.465 73.8085 262.901 76.7687 263.887 79.2356L212.576 116.521C210.039 113.772 208.347 110.53 206.585 107.147C206.515 107.006 206.444 106.865 206.374 106.794L247.535 61.0511ZM227.236 44.8401C229.28 44.8401 231.254 43.9239 232.452 42.1618C236.893 44.9811 241.192 48.1528 245.28 51.536C243.729 53.7914 243.729 56.7517 245.21 58.9366L204.823 103.834C204.823 103.764 204.753 103.693 204.753 103.693C204.118 102.565 203.413 101.438 202.709 100.31C201.158 97.843 199.678 95.4466 198.762 92.7683C198.621 92.3454 198.409 91.993 198.268 91.6406L225.404 44.6287C226.038 44.7696 226.673 44.9106 227.236 44.8401ZM200.876 33.14C203.413 33.14 205.739 31.6599 206.797 29.2635C211.73 31.1665 216.594 33.281 221.316 35.7479C220.188 38.2852 220.823 41.175 222.796 43.0781L197.563 86.7773C197.422 86.4249 197.281 86.1429 197.07 85.861C196.506 85.0857 195.59 84.6628 194.674 84.6628C194.18 84.6628 193.616 84.8038 193.193 85.0857C192.348 85.5791 191.643 85.7905 191.22 85.7905C191.008 85.7905 190.586 85.7905 189.951 84.9447C189.528 84.3809 188.894 84.1694 188.119 84.1694C187.907 84.1694 187.696 84.1694 187.555 84.1694H187.484C186.568 84.2399 185.722 84.3104 184.947 84.3104C184.595 84.3104 184.242 84.3104 183.89 84.3104L200.524 33.2105C200.524 33.14 200.735 33.14 200.876 33.14ZM173.529 27.0785C176.207 26.7261 178.392 24.7526 179.026 22.0742C184.313 22.8496 189.458 23.9773 194.533 25.3165C193.969 27.9948 195.167 30.7436 197.493 32.1533L180.647 83.8875C178.181 83.4646 175.925 82.5483 173.74 81.2092C172.471 80.4338 171.203 80.0109 169.934 80.0109C169.229 80.0109 168.524 80.1519 167.89 80.3634L173.529 27.0785ZM150.269 20.7351C152.877 20.5941 155.556 20.5236 158.164 20.5236C160.842 20.5236 163.45 20.5941 166.058 20.7351C166.128 23.4839 167.82 25.8803 170.357 26.7966L164.436 83.1827C163.873 83.958 163.379 84.8743 163.027 85.9315C162.674 86.9182 162.322 86.9182 162.04 86.9182C161.899 86.9182 161.758 86.9183 161.617 86.8478C160.067 86.5658 158.868 86.2134 157.811 85.4381C157.388 85.1562 157.036 84.8743 156.613 84.5923C155.062 83.4646 153.512 82.3369 151.75 81.4911L145.97 26.7261C148.507 25.8098 150.199 23.4134 150.269 20.7351ZM121.865 25.3165C126.94 23.9068 132.155 22.8496 137.371 22.0742C137.935 24.7526 140.19 26.7261 142.869 27.0785L148.507 80.4338C148.225 80.3634 147.873 80.2929 147.591 80.2929C146.534 80.1519 145.265 79.3766 144.067 78.5308C143.785 78.3898 143.503 78.1784 143.292 78.0374C144.137 77.2621 144.56 76.4868 144.701 75.8525C144.983 74.7248 144.772 73.3856 144.067 72.2579C143.574 71.4826 142.093 69.0157 138.781 69.0157C138.64 69.0157 138.499 69.0157 138.358 69.0157C136.737 69.0861 134.904 69.1566 132.719 69.1566C132.155 69.1566 131.521 69.1566 130.957 69.1566L118.975 32.1533C121.231 30.7436 122.429 27.9948 121.865 25.3165ZM95.0816 35.7479C99.8039 33.281 104.597 31.1665 109.531 29.2635C110.588 31.6599 112.914 33.14 115.451 33.14C115.592 33.14 115.803 33.14 115.944 33.14L127.645 69.1566C126.728 69.1566 125.742 69.1566 124.825 69.1566C124.473 69.1566 124.12 69.1566 123.768 69.1566C123.345 69.1566 122.922 69.1566 122.499 69.1566C120.314 69.1566 118.623 69.2976 117.566 70.1434C116.79 70.7072 115.874 70.9892 114.817 71.2006C113.548 71.4826 112.138 71.9055 110.87 72.8922L93.6719 43.1486C95.575 41.175 96.2093 38.2852 95.0816 35.7479ZM83.8749 42.2323C85.1435 43.9239 87.1171 44.9106 89.0906 44.9106C89.7249 44.9106 90.2888 44.8401 90.9231 44.6287L106.147 71.0597C105.161 71.0597 103.821 71.4121 102.623 73.0332C101.566 74.4428 100.438 75.782 99.2401 77.1212C97.8304 78.7423 96.3503 80.4338 95.0816 82.2664C94.6587 82.9007 94.2358 83.5351 93.7424 84.0989L71.188 59.0071C72.6681 56.7517 72.7386 53.7914 71.1175 51.6065C75.2055 48.2233 79.4344 45.0516 83.8749 42.2323ZM60.968 60.7692C61.109 60.6282 61.3204 60.4168 61.5319 60.2758C62.7301 61.3331 64.2807 61.8969 65.8313 61.8969C66.8885 61.8969 67.9458 61.615 68.9325 61.1216L91.6984 86.4249C90.6412 87.3411 89.5135 88.1164 88.1743 88.3984C83.0995 89.5966 80.3507 92.9093 78.5182 95.5876C78.1658 96.1515 77.7429 96.7153 77.3904 97.2792L52.5806 79.2356C53.5673 76.7687 53.0035 73.879 50.9595 71.9759C53.9902 68.0994 57.3734 64.3638 60.968 60.7692ZM43.2064 82.4778C44.1931 83.0417 45.3209 83.3236 46.3781 83.3236C47.9287 83.3236 49.4089 82.7598 50.6071 81.773L75.6284 99.9575C74.3597 101.931 73.091 103.764 71.2585 105.173C69.3554 106.653 69.6374 108.909 69.7783 109.755C69.9193 110.671 70.0603 111.587 70.2012 112.433C70.5536 114.195 70.8356 115.746 70.6946 117.367L38.3431 102.988C38.8365 100.31 37.5678 97.5611 35.1714 96.222C37.6383 91.4291 40.3166 86.8478 43.2064 82.4778ZM30.0261 107.993C30.6605 108.204 31.3653 108.345 31.9996 108.345C33.9732 108.345 35.8762 107.429 37.1449 105.808L70.0603 120.468C70.0603 120.609 69.9898 120.75 69.9898 120.82C69.7783 122.019 69.6374 123.076 69.0735 123.781C67.3114 125.966 67.5934 128.221 67.8753 130.054C68.0163 131.181 68.1572 132.098 67.8048 132.873C67.241 134.212 68.3687 135.128 68.8621 135.551C69.003 135.692 69.2145 135.833 69.2849 135.904C69.8488 136.538 70.4127 137.243 70.9765 137.877L29.5328 129.067C29.4623 126.389 27.7002 123.992 25.0924 123.076C26.502 118.001 28.1231 112.926 30.0261 107.993ZM22.4845 135.763C22.6959 135.763 22.9074 135.763 23.1188 135.763C25.5857 135.763 27.9117 134.353 28.9689 132.098L74.2892 141.754C74.7121 142.318 75.0645 142.952 75.3465 143.586C75.4169 143.798 75.5579 144.009 75.6284 144.291C76.6151 146.406 77.6019 148.591 79.6459 150.071C81.8309 151.692 83.7339 153.595 85.7779 155.639C85.9893 155.921 86.2713 156.132 86.4827 156.344L86.5532 156.414H26.361C25.7267 153.806 23.5417 151.833 20.7929 151.48C21.0748 146.194 21.6387 140.908 22.4845 135.763ZM22.4845 180.237C21.6387 175.022 21.0748 169.806 20.8634 164.449C23.5417 164.167 25.7972 162.123 26.4315 159.515H136.102C136.384 159.586 136.455 159.727 136.455 159.727C136.455 159.727 136.596 160.009 136.384 160.855C136.384 160.925 136.314 160.995 136.314 161.066L28.8984 183.902C27.8412 181.647 25.5152 180.237 23.0484 180.237C22.9074 180.237 22.6959 180.237 22.4845 180.237ZM111.504 156.414C111.504 156.414 111.645 155.568 113.196 154.793C113.478 154.652 113.689 154.511 113.971 154.37C115.099 153.736 116.297 153.101 117.425 153.101C117.777 153.101 118.129 153.172 118.482 153.313L118.623 153.383H118.764C119.116 153.454 119.539 153.524 120.032 153.524C120.385 153.524 120.667 153.524 121.019 153.454C121.301 153.454 121.583 153.454 121.795 153.454C122.57 153.454 122.711 153.595 122.852 153.806C123.698 154.863 124.543 155.709 125.53 156.414H111.504ZM31.9996 207.655C31.3653 207.655 30.6605 207.725 30.0261 208.007C28.1231 203.074 26.502 198.069 25.1628 192.924C27.7707 192.078 29.5328 189.611 29.6032 186.933L135.891 164.308C135.962 164.59 136.102 164.872 136.314 165.154C136.455 165.365 136.666 165.577 136.737 165.859L37.1449 210.192C35.8762 208.571 33.9732 207.655 31.9996 207.655ZM46.4486 232.676C45.3913 232.676 44.2636 232.958 43.2769 233.522C40.3166 229.082 37.7087 224.5 35.3123 219.778C37.7087 218.368 38.9069 215.69 38.484 213.012L136.384 169.383C136.173 169.735 135.961 170.088 135.75 170.511C135.186 171.427 134.834 172.343 134.763 173.118L50.6071 234.227C49.4793 233.24 47.9287 232.676 46.4486 232.676ZM68.8621 254.949C67.8753 254.455 66.8181 254.173 65.7608 254.173C64.2102 254.173 62.6596 254.737 61.4614 255.795C61.3204 255.654 61.109 255.442 60.8975 255.301C57.3029 251.707 53.9197 247.971 50.8185 244.024C52.8625 242.191 53.4264 239.231 52.4396 236.764L135.539 176.361C135.891 176.854 136.314 177.277 136.737 177.629C137.089 177.911 137.371 178.193 137.724 178.475L68.8621 254.949ZM89.0906 271.089C87.0466 271.089 85.0731 272.006 83.8749 273.768C79.4344 270.948 75.2055 267.777 71.047 264.393C72.5976 262.138 72.5976 259.178 71.1175 256.993L139.838 180.66C140.543 181.506 141.177 182.352 141.741 183.338L90.9231 271.371C90.3593 271.23 89.7249 271.089 89.0906 271.089ZM115.522 282.86C112.984 282.86 110.658 284.34 109.601 286.736C104.667 284.904 99.8039 282.719 95.1521 280.252C96.2798 277.715 95.6454 274.825 93.6719 272.922L143.503 186.581C143.926 187.497 144.278 188.484 144.56 189.47C144.842 190.387 144.983 191.373 145.195 192.36C145.195 192.501 145.265 192.572 145.265 192.713L116.015 282.789C115.803 282.86 115.663 282.86 115.522 282.86ZM142.869 288.921C140.19 289.274 138.005 291.247 137.371 293.926C132.085 293.15 126.94 292.023 121.865 290.683C122.429 288.005 121.231 285.256 118.905 283.847L146.816 197.928C148.366 201.03 147.873 203.567 144.983 207.091C141.248 211.602 141.036 215.549 144.278 221.047C144.701 221.822 145.124 222.527 145.618 223.302C146.886 225.417 148.155 227.531 149.142 229.716L142.869 288.921ZM166.128 295.265C163.52 295.406 160.842 295.476 158.234 295.476C155.556 295.476 152.948 295.406 150.34 295.265C150.34 292.516 148.578 290.12 146.041 289.203L151.397 238.526C151.891 242.332 153.512 245.786 156.401 249.169L156.472 249.24C158.445 251.495 160.419 253.892 160.067 256.993C159.785 259.107 160.208 260.799 161.265 261.997C161.97 262.772 163.309 263.689 165.635 263.689C165.917 263.689 166.199 263.689 166.41 263.618C166.833 263.618 167.326 263.548 167.749 263.548L170.428 289.203C167.89 290.19 166.128 292.586 166.128 295.265ZM170.216 260.658L167.538 260.799C167.044 260.799 166.621 260.869 166.128 260.869C165.917 260.869 165.705 260.869 165.564 260.869C164.507 260.869 163.732 260.587 163.309 260.094C162.815 259.53 162.604 258.614 162.745 257.345C163.238 253.046 160.63 249.945 158.516 247.407L158.445 247.337C155.908 244.376 154.498 241.416 154.076 238.174C154.076 238.103 154.076 238.103 154.076 238.033L149.917 224.994C149.917 224.923 149.847 224.853 149.847 224.853C149.283 223.795 148.648 222.738 148.014 221.751C147.591 221.047 147.168 220.271 146.745 219.567C144.137 215.056 144.278 212.377 147.239 208.783C149.776 205.681 152.032 201.805 149.424 196.589L147.944 193.699V193.629L148.155 192.995L148.014 192.29V192.149L147.944 191.937C147.732 190.88 147.591 189.752 147.239 188.625C146.886 187.567 146.534 186.51 146.041 185.453C146.041 185.453 146.041 185.382 145.97 185.382L143.503 180.872C143.503 180.872 143.503 180.801 143.433 180.801C142.939 180.096 142.446 179.462 141.953 178.828L141.53 178.264L141.6 178.193L140.895 177.559L140.825 177.488L139.909 176.361L139.768 176.502L139.556 176.29C139.204 175.938 138.851 175.656 138.499 175.374C138.217 175.162 138.006 174.881 137.794 174.669L137.371 174.105L137.442 173.471C137.512 173.048 137.653 172.555 138.006 172.061C138.287 171.638 138.499 171.286 138.71 170.934C138.781 170.863 138.781 170.722 138.781 170.652L139.415 165.013L139.204 164.661C138.992 164.238 138.781 163.885 138.499 163.533L138.428 163.462L138.358 163.321L138.781 162.053C138.851 161.912 138.851 161.771 138.922 161.63C139.063 161.066 139.486 159.515 138.569 158.247C138.217 157.683 137.583 157.26 136.807 156.978L136.384 156.837H131.028C130.887 156.837 130.675 156.767 130.534 156.696L127.01 154.229C126.235 153.665 125.601 153.031 124.966 152.256C123.979 150.916 122.57 150.775 121.654 150.775C121.372 150.775 121.019 150.775 120.737 150.775C120.455 150.775 120.173 150.775 119.962 150.775C119.75 150.775 119.539 150.775 119.328 150.705C118.693 150.494 117.988 150.353 117.284 150.353C115.451 150.353 113.83 151.198 112.491 151.903C112.279 152.044 111.997 152.185 111.786 152.256C110.729 152.819 108.826 155.427 108.121 156.344C107.98 156.555 107.698 156.696 107.416 156.696H91.0641C90.8526 156.696 90.6412 156.626 90.5002 156.485L88.3153 154.37L88.2448 154.3L87.5399 153.595C85.4255 151.48 83.5224 149.507 81.126 147.745C79.7164 146.688 78.8706 144.925 78.0248 143.022C77.8838 142.811 77.8133 142.529 77.6724 142.318C77.6019 142.247 77.6019 142.177 77.5314 142.106L72.95 135.974C72.95 135.974 72.95 135.974 72.8796 135.904C72.3862 135.34 71.8223 134.705 71.3289 134.071V134.001V133.93C71.1175 133.719 70.8356 133.507 70.4832 133.225C70.8356 131.957 70.6241 130.688 70.4832 129.56C70.2717 127.798 70.1307 126.6 71.1175 125.472C72.1043 124.204 72.3862 122.653 72.6681 121.243L73.3729 117.508C73.5844 115.464 73.232 113.561 72.8796 111.728C72.7386 110.882 72.5271 110.107 72.4567 109.261C72.3157 108.134 72.4567 107.57 72.8796 107.217C75.0645 105.526 76.6151 103.341 77.8838 101.297L79.2935 99.0413L79.5754 98.6184C79.8573 98.125 80.2802 97.5611 80.6326 96.9973C82.2537 94.5304 84.5092 91.9225 88.5972 90.9358C90.2888 90.5129 91.9099 89.6671 93.39 88.3279L93.6015 88.1164L93.7424 88.2574L94.5177 87.2707C94.5177 87.2002 94.5882 87.2002 94.5882 87.1297L95.434 86.3544L95.293 86.2134L95.7864 85.5791C96.2093 85.0152 96.6322 84.3809 97.1961 83.676C98.3943 81.9845 99.8039 80.3634 101.214 78.8127C102.482 77.4031 103.68 76.0639 104.738 74.5133C105.372 73.6675 105.865 73.6675 106.006 73.6675H107.98L108.191 74.0199L109.319 75.9934C109.601 76.4163 110.165 76.5573 110.588 76.2049L112.35 74.7952C113.125 74.1609 114.182 73.9494 115.24 73.6675C116.508 73.3856 117.847 73.0332 119.046 72.1169C119.398 71.835 120.526 71.694 122.288 71.694C122.711 71.694 123.134 71.694 123.557 71.694C123.909 71.694 124.261 71.694 124.614 71.694C125.53 71.694 126.517 71.694 127.433 71.694H128.702H129.97H131.38H132.508C134.763 71.694 136.596 71.6235 138.287 71.553H138.499C139.979 71.553 140.754 72.4693 141.389 73.3856C141.671 73.879 141.812 74.4428 141.671 74.7952C141.6 75.0772 141.459 75.2886 141.177 75.5705L139.133 77.3326C138.71 77.685 138.781 78.3898 139.204 78.6718L141.459 80.0814C141.741 80.2224 141.953 80.4338 142.234 80.5748C143.644 81.4911 145.265 82.5483 146.957 82.7598C147.168 82.7598 147.38 82.8303 147.662 82.9007L148.86 83.1122C148.93 83.1122 149.001 83.1122 149.071 83.1827L150.269 83.7465C151.82 84.4514 153.23 85.5086 154.639 86.5658C155.062 86.8478 155.415 87.1297 155.838 87.4116C157.388 88.4689 159.08 88.9622 160.771 89.2442C161.124 89.3147 161.476 89.3147 161.758 89.3147C162.956 89.3147 164.577 88.8213 165.423 86.4954C165.705 85.72 166.058 85.0152 166.48 84.4514L166.903 83.817L166.974 83.3236L168.524 82.7598C168.877 82.6188 169.229 82.5483 169.582 82.5483C170.287 82.5483 171.062 82.8303 171.908 83.2532C174.375 84.8038 176.912 85.7905 179.731 86.2839L181.493 86.5658C181.493 86.5658 181.564 86.5658 181.634 86.5658H182.339L183.467 86.6363C183.819 86.6363 184.242 86.6363 184.665 86.6363C185.581 86.6363 186.498 86.6363 187.484 86.4954H187.555C187.625 86.4954 187.696 86.4954 187.766 86.4954C188.753 87.6231 189.81 88.1164 191.008 88.1164C191.995 88.1164 192.982 87.764 194.321 87.0592C194.392 87.0592 194.392 87.0592 194.462 87.0592C194.533 87.0592 194.603 87.0592 194.603 87.1297C194.603 87.1297 194.603 87.1297 194.603 87.2002L195.378 89.6671C195.449 89.8785 195.449 90.1604 195.308 90.3719L195.096 90.7243C194.955 90.9358 194.955 91.2882 195.096 91.4996L195.59 92.4159C195.731 92.6273 195.801 92.9093 195.942 93.1912C196.999 96.1515 198.55 98.6888 200.171 101.297C200.805 102.354 201.51 103.482 202.145 104.539V104.609L202.215 104.75L202.85 105.878L203.766 107.64L203.907 107.852L203.977 108.063C205.81 111.658 207.572 115.041 210.391 118.072L211.66 119.481L211.73 119.552L212.153 120.116C212.717 120.891 213.21 121.807 213.704 122.582C214.761 124.415 215.818 126.318 217.58 127.728C218.074 128.151 218.497 128.573 218.99 128.996L219.061 129.067L222.655 132.098C224.417 133.366 224.911 134.353 224.629 136.045L224.206 138.652C224.135 139.216 224.629 139.71 225.192 139.639L227.871 139.287C228.294 139.216 228.717 139.216 229.069 139.216C230.479 139.216 231.113 139.71 231.465 140.133L232.664 141.472C232.946 141.824 233.439 141.824 233.791 141.542L235.201 140.485C236.681 139.357 238.232 139.216 239.43 139.216C240.205 139.216 241.051 139.287 241.897 139.357C242.743 139.428 243.659 139.498 244.505 139.498C244.716 139.498 244.928 139.498 245.069 139.498H245.21C245.562 139.498 245.773 139.569 245.773 139.569H245.844V139.78C245.844 139.992 245.773 140.274 245.632 140.556C243.941 145.348 241.685 150.071 239.078 154.582L238.091 156.273L237.245 157.612L237.175 157.753L237.104 157.824C236.047 159.515 234.355 160.925 232.523 162.405C232.1 162.758 231.747 163.039 231.324 163.392C229.351 165.083 227.448 166.916 225.686 168.819L222.373 172.484L222.585 172.555C221.245 174.246 219.977 176.079 218.849 177.911C218.497 178.475 218.074 179.109 217.651 179.673C217.157 180.308 216.805 180.872 216.453 181.365L216.03 181.999C215.889 181.929 215.818 181.929 215.677 181.929C215.184 181.929 214.832 182.352 214.832 182.845L214.902 183.832V184.325L214.973 186.087C214.973 186.299 214.973 186.51 215.043 186.722C215.536 190.387 216.171 193.911 218.285 197.012C218.92 197.928 219.131 198.986 218.92 199.69C218.849 199.831 218.849 199.972 218.779 200.113L218.144 202.721V202.792L218.215 205.4C218.215 205.681 218.215 206.034 218.285 206.316C218.356 207.514 218.426 208.642 218.285 209.769C218.074 211.954 215.959 214.21 213.563 214.844H213.492L211.801 215.267L211.589 215.338L209.475 216.465C207.008 217.804 204.753 219.778 202.85 222.245C202.638 222.527 202.427 222.809 202.356 223.161L201.933 224.218C201.863 224.5 201.863 224.853 202.074 225.064L202.85 225.98C203.202 226.403 203.202 226.756 203.131 227.602C203.131 227.954 203.131 228.377 203.131 228.8C203.343 230.985 203.131 232.676 202.427 233.874L202.004 234.579C201.933 234.65 201.863 234.791 201.792 234.861L201.087 235.355C200.383 235.848 199.466 236.271 198.409 236.553C195.731 237.258 194.18 240.429 194.744 242.755C195.519 246.279 193.828 248.042 191.008 250.649C190.515 251.072 190.092 251.425 189.669 251.848C189.599 251.918 189.599 251.918 189.528 251.989L189.387 252.129L188.33 253.116L188.26 253.187L187.061 254.033C183.537 256.57 179.449 258.05 175.643 259.319C173.811 259.953 172.119 260.094 170.709 260.235L170.216 260.658ZM194.533 290.683C189.458 292.093 184.242 293.15 179.026 293.926C178.463 291.247 176.207 289.274 173.529 288.921L170.85 263.407C172.612 263.266 174.515 263.054 176.489 262.349C180.647 260.94 184.876 259.389 188.682 256.64L197.493 283.776C195.167 285.256 193.969 288.005 194.533 290.683ZM221.316 280.252C216.594 282.719 211.801 284.833 206.797 286.736C205.739 284.34 203.413 282.86 200.876 282.86C200.735 282.86 200.524 282.86 200.383 282.86L191.22 254.596C191.361 254.455 191.431 254.385 191.572 254.314C191.925 253.962 192.348 253.539 192.841 253.187C195.449 250.861 198.621 247.971 197.493 242.614C197.281 241.628 198.057 240.006 199.184 239.725C200.594 239.372 201.792 238.808 202.779 238.174L222.867 272.992C220.823 274.825 220.188 277.715 221.316 280.252ZM232.523 273.768C231.254 272.076 229.28 271.089 227.307 271.089C226.673 271.089 226.109 271.16 225.474 271.371L204.893 235.778C205.951 234.015 206.303 231.76 206.021 228.941C206.021 228.729 206.021 228.447 206.021 228.165C206.092 227.249 206.092 225.839 205.034 224.571C205.034 224.5 205.105 224.43 205.175 224.359C206.937 222.033 208.981 220.271 211.237 219.144L245.28 256.993C243.8 259.178 243.729 262.208 245.351 264.393C241.192 267.777 236.963 270.948 232.523 273.768ZM255.43 255.231C255.289 255.372 255.077 255.583 254.866 255.724C253.667 254.667 252.117 254.103 250.566 254.103C249.509 254.103 248.452 254.385 247.465 254.878L214.197 217.945C214.197 217.945 214.197 217.945 214.268 217.945C217.862 216.959 220.823 213.716 221.104 210.404C221.245 209.065 221.175 207.796 221.104 206.527C221.104 206.245 221.104 205.893 221.104 205.611L263.887 236.694C262.901 239.161 263.465 242.05 265.509 243.954C262.407 247.901 259.024 251.636 255.43 255.231ZM273.121 233.522C272.134 232.958 271.006 232.676 269.949 232.676C268.469 232.676 266.918 233.24 265.72 234.227L221.316 201.946C221.386 201.593 221.457 201.312 221.598 200.959C222.162 199.408 221.809 197.435 220.682 195.743C218.92 193.136 218.426 190.105 217.933 186.651C217.933 186.51 217.933 186.369 217.862 186.299L277.984 213.082C277.491 215.76 278.759 218.509 281.156 219.848C278.759 224.571 276.081 229.152 273.121 233.522ZM286.371 208.007C285.737 207.796 285.032 207.655 284.398 207.655C282.424 207.655 280.521 208.571 279.253 210.192L218.92 183.338C219.201 182.916 219.483 182.493 219.836 181.999C220.259 181.435 220.682 180.872 221.104 180.237C222.514 178.052 223.994 175.938 225.545 173.964L286.794 187.004C286.865 189.682 288.627 192.078 291.235 192.995C289.896 197.999 288.274 203.074 286.371 208.007ZM293.913 180.237C293.702 180.237 293.49 180.237 293.279 180.237C290.812 180.237 288.486 181.647 287.429 183.902L227.871 171.215C229.562 169.383 231.324 167.621 233.298 166C233.65 165.647 234.073 165.365 234.426 165.013C236.329 163.462 238.232 161.912 239.571 159.797C239.641 159.727 239.712 159.656 239.712 159.515H290.036C290.671 162.123 292.856 164.097 295.605 164.449C295.323 169.806 294.759 175.022 293.913 180.237ZM290.036 156.414H241.615C244.293 151.762 246.549 146.899 248.381 141.895C248.593 141.331 248.734 140.767 248.734 140.274L287.499 132.027C288.556 134.283 290.882 135.692 293.349 135.692C293.561 135.692 293.772 135.692 293.984 135.692C294.829 140.908 295.393 146.124 295.605 151.48C292.856 151.833 290.671 153.806 290.036 156.414Z" fill="#0C1A81"/>
<path d="M302.865 96.8563C294.971 78.1785 283.623 61.4036 269.245 46.9547C254.796 32.5057 238.021 21.2285 219.343 13.3345C199.96 5.15847 179.379 1 158.164 1C136.949 1 116.438 5.15847 97.0556 13.3345C78.3777 21.2285 61.6028 32.5762 47.2244 46.9547C32.7754 61.4036 21.4277 78.1785 13.5337 96.8563C5.35769 116.239 1.19922 136.82 1.19922 157.965C1.19922 179.11 5.35769 199.761 13.5337 219.144C21.4277 237.822 32.7754 254.596 47.1539 269.045C61.6028 283.494 78.3777 294.772 97.0556 302.666C116.438 310.842 136.949 315 158.164 315C179.379 315 199.89 310.842 219.272 302.666C237.95 294.772 254.725 283.424 269.174 269.045C283.623 254.596 294.9 237.822 302.794 219.144C310.97 199.761 315.129 179.251 315.129 158.035C315.129 136.82 311.041 116.239 302.865 96.8563ZM300.257 218.016C292.504 236.341 281.368 252.834 267.201 267.001C253.034 281.168 236.541 292.305 218.215 300.058C199.185 308.093 179.027 312.181 158.234 312.181C137.442 312.181 117.214 308.093 98.2538 300.058C79.9283 292.305 63.4354 281.168 49.2683 267.001C35.1013 252.834 23.9651 236.341 16.212 218.016C8.177 198.986 4.08901 178.828 4.08901 158.035C4.08901 137.243 8.177 117.014 16.212 98.0545C23.9651 79.7291 35.1013 63.2361 49.2683 49.0691C63.4354 34.9021 79.9283 23.7659 98.2538 16.0128C117.284 7.97778 137.442 3.88979 158.234 3.88979C179.027 3.88979 199.255 7.97778 218.215 16.0128C236.541 23.7659 253.034 34.9021 267.201 49.0691C281.368 63.2361 292.504 79.7291 300.257 98.0545C308.292 117.085 312.38 137.243 312.38 158.035C312.38 178.828 308.292 198.986 300.257 218.016Z" fill="#0C1A81" stroke="#0C1A81" stroke-miterlimit="10"/>
</svg>
