<svg width="25" height="24" viewBox="0 0 25 24" fill="none" xmlns="http://www.w3.org/2000/svg">
<g id="Facebook Logo" clip-path="url(#clip0_11840_42890)">
<rect width="24" height="24" transform="translate(0.304688 -0.00390625)" fill="white"/>
<path id="path14" d="M23.8047 12.0655C23.8047 5.71421 18.656 0.565485 12.3047 0.565485C5.95341 0.565485 0.804688 5.71421 0.804688 12.0655C0.804688 17.8055 5.01007 22.5631 10.5078 23.4258V15.3897H7.58789V12.0655H10.5078V9.53189C10.5078 6.6497 12.2247 5.05767 14.8515 5.05767C16.1097 5.05767 17.4258 5.28228 17.4258 5.28228V8.11236H15.9757C14.5471 8.11236 14.1016 8.99883 14.1016 9.90827V12.0655H17.291L16.7812 15.3897H14.1016V23.4258C19.5993 22.5631 23.8047 17.8055 23.8047 12.0655Z" fill="#1877F2"/>
</g>
<defs>
<clipPath id="clip0_11840_42890">
<rect width="24" height="24" fill="white" transform="translate(0.304688 -0.00390625)"/>
</clipPath>
</defs>
</svg>
