<svg width="25" height="26" viewBox="0 0 25 26" fill="none" xmlns="http://www.w3.org/2000/svg">
<g id="Group">
<path id="Vector" d="M24.5544 13.7018C24.5544 12.6819 24.4645 11.9339 24.2846 11.1406H12.6377V15.7871H19.473C19.338 16.943 18.5961 18.6656 16.9322 19.8442L16.9097 20.0029L20.5972 22.8814L20.8445 22.9041C23.2054 20.7282 24.5544 17.5097 24.5544 13.7018Z" fill="#4877BB"/>
<path id="Vector_2" d="M12.6375 25.9432C15.9877 25.9432 18.7983 24.8326 20.8443 22.906L16.9321 19.8462C15.8753 20.5715 14.4812 21.0928 12.6375 21.0928C9.3548 21.0928 6.56674 18.9169 5.57742 15.9023L5.44252 15.925L1.62017 18.9169L1.5752 19.0529C3.59879 23.1327 7.7809 25.9432 12.6375 25.9432Z" fill="#21A849"/>
<path id="Vector_3" d="M5.57783 15.9026C5.30802 15.132 5.17311 14.2933 5.17311 13.432C5.17311 12.5707 5.3305 11.7321 5.57783 10.9615V10.8028L1.71051 7.76562L1.5756 7.83363C0.743679 9.53355 0.249023 11.4375 0.249023 13.4547C0.249023 15.4719 0.721195 17.3759 1.5756 19.0758L5.57783 15.9026Z" fill="#FBBA10"/>
<path id="Vector_4" d="M12.6385 5.76919C14.9769 5.76919 16.5283 6.78914 17.4277 7.62777L20.9353 4.18259C18.7768 2.16535 15.9887 0.941406 12.6385 0.941406C7.78189 0.941406 3.59979 3.75195 1.55371 7.83176L5.55593 10.9823C6.56773 7.94509 9.3558 5.76919 12.6385 5.76919Z" fill="#E73830"/>
</g>
</svg>
