<svg width="16" height="16" viewBox="0 0 16 16" fill="none" xmlns="http://www.w3.org/2000/svg">
<g clip-path="url(#clip0_13164_114209)">
<path d="M7.9987 14.6654C11.6806 14.6654 14.6654 11.6806 14.6654 7.9987C14.6654 4.3168 11.6806 1.33203 7.9987 1.33203C4.3168 1.33203 1.33203 4.3168 1.33203 7.9987C1.33203 11.6806 4.3168 14.6654 7.9987 14.6654Z" stroke="black" stroke-width="2" stroke-linecap="round" stroke-linejoin="round"/>
<path d="M1.33203 8H14.6654" stroke="black" stroke-width="2" stroke-linecap="round" stroke-linejoin="round"/>
<path d="M7.9987 1.33203C9.66622 3.1576 10.6139 5.52672 10.6654 7.9987C10.6139 10.4707 9.66622 12.8398 7.9987 14.6654C6.33118 12.8398 5.38353 10.4707 5.33203 7.9987C5.38353 5.52672 6.33118 3.1576 7.9987 1.33203V1.33203Z" stroke="black" stroke-width="2" stroke-linecap="round" stroke-linejoin="round"/>
</g>
<defs>
<clipPath id="clip0_13164_114209">
<rect width="16" height="16" fill="white"/>
</clipPath>
</defs>
</svg>
